/* XPM */
static char * player_walk3_xpm[] = {
"64 64 647 2",
"  	c None",
". 	c #131313",
"+ 	c #121212",
"@ 	c #111111",
"# 	c #2A2A2A",
"$ 	c #212121",
"% 	c #222222",
"& 	c #292929",
"* 	c #282828",
"= 	c #2C2C2C",
"- 	c #181818",
"; 	c #2D2D2D",
"> 	c #2E2E2E",
", 	c #2B2B2B",
"' 	c #272727",
") 	c #3D3D3D",
"! 	c #252525",
"~ 	c #3E3E3E",
"{ 	c #101010",
"] 	c #333333",
"^ 	c #1C1C1C",
"/ 	c #343434",
"( 	c #1E1E1E",
"_ 	c #353535",
": 	c #262626",
"< 	c #1D1D1D",
"[ 	c #363636",
"} 	c #303030",
"| 	c #383838",
"1 	c #1B1B1B",
"2 	c #2F2F2F",
"3 	c #1A1A1A",
"4 	c #393939",
"5 	c #323232",
"6 	c #1F1415",
"7 	c #313131",
"8 	c #151515",
"9 	c #373737",
"0 	c #191919",
"a 	c #0E1312",
"b 	c #431820",
"c 	c #5B1C27",
"d 	c #5E1C27",
"e 	c #5D1C27",
"f 	c #561C26",
"g 	c #551C26",
"h 	c #451920",
"i 	c #1A1314",
"j 	c #3C3C3C",
"k 	c #1B1213",
"l 	c #501922",
"m 	c #7E1E2A",
"n 	c #881E2B",
"o 	c #871E2B",
"p 	c #661C28",
"q 	c #631C28",
"r 	c #601C28",
"s 	c #561C27",
"t 	c #571C27",
"u 	c #3B161C",
"v 	c #323333",
"w 	c #141414",
"x 	c #3B3B3B",
"y 	c #322C2D",
"z 	c #4F1821",
"A 	c #7C1D2A",
"B 	c #961F2C",
"C 	c #9C202C",
"D 	c #991F2C",
"E 	c #811E2A",
"F 	c #661D28",
"G 	c #611C28",
"H 	c #441820",
"I 	c #332D2E",
"J 	c #6E191E",
"K 	c #61181D",
"L 	c #401519",
"M 	c #353636",
"N 	c #33151A",
"O 	c #721D29",
"P 	c #981F2C",
"Q 	c #BB232F",
"R 	c #C52430",
"S 	c #C02430",
"T 	c #A2202D",
"U 	c #9A1F2C",
"V 	c #611D28",
"W 	c #363736",
"X 	c #65181C",
"Y 	c #C82531",
"Z 	c #AF222E",
"` 	c #6F1A24",
" .	c #3F1519",
"..	c #161616",
"+.	c #322A2B",
"@.	c #531922",
"#.	c #7B1D2A",
"$.	c #C42430",
"%.	c #BC232F",
"&.	c #9A202C",
"*.	c #521921",
"=.	c #322B2C",
"-.	c #2E2F2F",
";.	c #5C171B",
">.	c #A82029",
",.	c #BA232F",
"'.	c #701B24",
").	c #3C1518",
"!.	c #8D1C24",
"~.	c #631921",
"{.	c #101111",
"].	c #2C1418",
"^.	c #6B1D29",
"/.	c #AE222E",
"(.	c #891E2B",
"_.	c #2A1418",
":.	c #0C1111",
"<.	c #121313",
"[.	c #111313",
"}.	c #73191F",
"|.	c #A8212D",
"1.	c #711B24",
"2.	c #3A1518",
"3.	c #241314",
"4.	c #9B1E27",
"5.	c #BF232F",
"6.	c #881E2A",
"7.	c #641921",
"8.	c #001211",
"9.	c #211416",
"0.	c #561A23",
"a.	c #911F2B",
"b.	c #971F2C",
"c.	c #801E2A",
"d.	c #451921",
"e.	c #191314",
"f.	c #101313",
"g.	c #0F1312",
"h.	c #2C1518",
"i.	c #37171C",
"j.	c #5D171B",
"k.	c #A11F28",
"l.	c #B8222D",
"m.	c #9E202D",
"n.	c #8A1E2B",
"o.	c #851D2A",
"p.	c #761B26",
"q.	c #5E1820",
"r.	c #041312",
"s.	c #271417",
"t.	c #5A1A27",
"u.	c #7F1C2A",
"v.	c #9D202D",
"w.	c #B5222F",
"x.	c #7A1C2A",
"y.	c #661A28",
"z.	c #671A28",
"A.	c #5C1C27",
"B.	c #4C1A23",
"C.	c #4B1A22",
"D.	c #501B24",
"E.	c #081312",
"F.	c #091313",
"G.	c #0A1313",
"H.	c #48161B",
"I.	c #9D1F2A",
"J.	c #C72430",
"K.	c #781C26",
"L.	c #311416",
"M.	c #2C1415",
"N.	c #B6222D",
"O.	c #8D1E2B",
"P.	c #831E2A",
"Q.	c #6F1D29",
"R.	c #821D29",
"S.	c #7A1C27",
"T.	c #7B1C27",
"U.	c #3E1519",
"V.	c #251415",
"W.	c #741B26",
"X.	c #7D4422",
"Y.	c #EA9319",
"Z.	c #C77A1F",
"`.	c #741829",
" +	c #911F2C",
".+	c #B7232F",
"++	c #A1202D",
"@+	c #C12430",
"#+	c #BD232F",
"$+	c #941F2C",
"%+	c #7B192A",
"&+	c #B16922",
"*+	c #EA9419",
"=+	c #8C4E24",
"-+	c #581C27",
";+	c #531B26",
">+	c #901E28",
",+	c #B2212C",
"'+	c #B0212B",
")+	c #A4202B",
"!+	c #A4212D",
"~+	c #351517",
"{+	c #051313",
"]+	c #A8202A",
"^+	c #C0232F",
"/+	c #591C27",
"(+	c #561B26",
"_+	c #7C1D28",
":+	c #851E2A",
"<+	c #8A4B25",
"[+	c #FFAC1A",
"}+	c #FBB922",
"|+	c #C17620",
"1+	c #791E29",
"2+	c #8F1E2B",
"3+	c #B8232F",
"4+	c #951F2C",
"5+	c #921F2C",
"6+	c #801F2A",
"7+	c #AA6423",
"8+	c #F9A019",
"9+	c #FFB820",
"0+	c #FFAF1A",
"a+	c #975623",
"b+	c #821C2A",
"c+	c #C22430",
"d+	c #9F202D",
"e+	c #8F1F2B",
"f+	c #A3212D",
"g+	c #7E1C28",
"h+	c #B1212C",
"i+	c #841E2A",
"j+	c #851E2B",
"k+	c #8A4A24",
"l+	c #FFB72E",
"m+	c #FFDD47",
"n+	c #FDB721",
"o+	c #BB7220",
"p+	c #7E2429",
"q+	c #8A222B",
"r+	c #773826",
"s+	c #A35F23",
"t+	c #FBAF1E",
"u+	c #FFD842",
"v+	c #FFD73F",
"w+	c #FFB019",
"x+	c #975523",
"y+	c #861E2B",
"z+	c #551C27",
"A+	c #861F2A",
"B+	c #AD212E",
"C+	c #751D29",
"D+	c #9D212C",
"E+	c #C62430",
"F+	c #9B202C",
"G+	c #7D1C28",
"H+	c #321417",
"I+	c #541B26",
"J+	c #511B25",
"K+	c #844625",
"L+	c #F4A51B",
"M+	c #FFD13A",
"N+	c #FFD540",
"O+	c #FFAF19",
"P+	c #A56022",
"Q+	c #7F1A2A",
"R+	c #793A26",
"S+	c #F79E16",
"T+	c #FCAF1F",
"U+	c #FFD740",
"V+	c #FFEA55",
"W+	c #FFD43D",
"X+	c #F7A81A",
"Y+	c #935024",
"Z+	c #831D2B",
"`+	c #821E2A",
" @	c #701D29",
".@	c #541C27",
"+@	c #96202B",
"@@	c #791C27",
"#@	c #0A1312",
"$@	c #621C27",
"%@	c #41181F",
"&@	c #501A24",
"*@	c #925424",
"=@	c #EA941A",
"-@	c #E9941A",
";@	c #9F5924",
">@	c #801A2A",
",@	c #7B3627",
"'@	c #EA991B",
")@	c #FFC831",
"!@	c #FFDF4F",
"~@	c #FFD33F",
"{@	c #F5AA1C",
"]@	c #A25B23",
"^@	c #801C2A",
"/@	c #A9212D",
"(@	c #B7222D",
"_@	c #2A1518",
":@	c #4B1A23",
"<@	c #3B171D",
"[@	c #181313",
"}@	c #811D29",
"|@	c #841E2B",
"1@	c #681C28",
"2@	c #7F1D2A",
"3@	c #853F26",
"4@	c #DF8B1A",
"5@	c #E18D1A",
"6@	c #A96123",
"7@	c #7C172A",
"8@	c #651C28",
"9@	c #35161B",
"0@	c #261417",
"a@	c #531C27",
"b@	c #45161A",
"c@	c #BA232E",
"d@	c #7F1C28",
"e@	c #831929",
"f@	c #771027",
"g@	c #7D1528",
"h@	c #7E1528",
"i@	c #861E2A",
"j@	c #851D2B",
"k@	c #681329",
"l@	c #691329",
"m@	c #7D1A2A",
"n@	c #8B1E2B",
"o@	c #721326",
"p@	c #6B0F24",
"q@	c #881D2B",
"r@	c #36161B",
"s@	c #0D1312",
"t@	c #42181F",
"u@	c #221416",
"v@	c #4A1A22",
"w@	c #4A1A24",
"x@	c #A6212B",
"y@	c #6C1A23",
"z@	c #931D25",
"A@	c #031312",
"B@	c #841A2A",
"C@	c #7E4D21",
"D@	c #9E751E",
"E@	c #92641E",
"F@	c #90621E",
"G@	c #801729",
"H@	c #3C001A",
"I@	c #7F1928",
"J@	c #690324",
"K@	c #821929",
"L@	c #610022",
"M@	c #640C22",
"N@	c #7E1D28",
"O@	c #700425",
"P@	c #A56417",
"Q@	c #B37113",
"R@	c #742A22",
"S@	c #7F1E2A",
"T@	c #2F1619",
"U@	c #271517",
"V@	c #491922",
"W@	c #591C28",
"X@	c #36171D",
"Y@	c #A21F28",
"Z@	c #9C202D",
"`@	c #8B1E2C",
" #	c #301415",
".#	c #A4202C",
"+#	c #601920",
"@#	c #861D2A",
"##	c #79391E",
"$#	c #D79719",
"%#	c #D1A41F",
"&#	c #B69E33",
"*#	c #B19A31",
"=#	c #41001B",
"-#	c #B4881D",
";#	c #7A491F",
">#	c #B88D1C",
",#	c #82521F",
"'#	c #C69B1C",
")#	c #957517",
"!#	c #34001A",
"~#	c #A97E1D",
"{#	c #F5B31E",
"]#	c #FDA416",
"^#	c #5C3615",
"/#	c #871E2A",
"(#	c #3C171D",
"_#	c #2B1518",
":#	c #3D171E",
"<#	c #1F1518",
"[#	c #5F1820",
"}#	c #53171D",
"|#	c #851B22",
"1#	c #58181E",
"2#	c #801D28",
"3#	c #764914",
"4#	c #FFAE19",
"5#	c #EFBC22",
"6#	c #E9CB42",
"7#	c #E9C940",
"8#	c #765A13",
"9#	c #E4C742",
"0#	c #756724",
"a#	c #F4D444",
"b#	c #C39A1F",
"c#	c #877728",
"d#	c #FFE44B",
"e#	c #C2AA38",
"f#	c #9B7714",
"g#	c #F4D040",
"h#	c #FFCF31",
"i#	c #FCA717",
"j#	c #5C3616",
"k#	c #831D2A",
"l#	c #681D28",
"m#	c #5C181F",
"n#	c #7F1B21",
"o#	c #231415",
"p#	c #FFAD19",
"q#	c #FFC925",
"r#	c #FFCD2E",
"s#	c #FFDD46",
"t#	c #E9C134",
"u#	c #F8DF4E",
"v#	c #E5BB30",
"w#	c #FDE754",
"x#	c #FBDC49",
"y#	c #E7C035",
"z#	c #FFEC58",
"A#	c #F0DE52",
"B#	c #F1D94C",
"C#	c #FFBE31",
"D#	c #A66A15",
"E#	c #7B2625",
"F#	c #291518",
"G#	c #5A181F",
"H#	c #6D1920",
"I#	c #261415",
"J#	c #7C2825",
"K#	c #AA6E15",
"L#	c #FFB71E",
"M#	c #CDA01F",
"N#	c #D2AA2A",
"O#	c #FFCA2A",
"P#	c #FFE34E",
"Q#	c #FFE651",
"R#	c #FFE853",
"S#	c #FDD33A",
"T#	c #FFEB57",
"U#	c #FEDE48",
"V#	c #FEDF4A",
"W#	c #FFD942",
"X#	c #A77B1D",
"Y#	c #7B2525",
"Z#	c #8C1C24",
"`#	c #A3202C",
" $	c #60181F",
".$	c #361517",
"+$	c #44161A",
"@$	c #792525",
"#$	c #B37315",
"$$	c #BE7B15",
"%$	c #C4991F",
"&$	c #AB841C",
"*$	c #E3B62A",
"=$	c #FECC2F",
"-$	c #F1C22D",
";$	c #95741D",
">$	c #F9C82E",
",$	c #FBCA2F",
"'$	c #C79F25",
")$	c #CBA226",
"!$	c #AE8A21",
"~$	c #7A2A25",
"{$	c #241416",
"]$	c #951D25",
"^$	c #231416",
"/$	c #611C26",
"($	c #772724",
"_$	c #702A21",
":$	c #6F3421",
"<$	c #792C25",
"[$	c #693D1D",
"}$	c #E2B122",
"|$	c #75521B",
"1$	c #7E2627",
"2$	c #5B3F18",
"3$	c #5A4017",
"4$	c #713221",
"5$	c #782C24",
"6$	c #921D25",
"7$	c #7F1B22",
"8$	c #5D2D1D",
"9$	c #841F29",
"0$	c #5E1C28",
"a$	c #461921",
"b$	c #201416",
"c$	c #43161A",
"d$	c #48161C",
"e$	c #631C27",
"f$	c #641C28",
"g$	c #6C1D28",
"h$	c #731D29",
"i$	c #671D28",
"j$	c #901F2B",
"k$	c #3A171D",
"l$	c #6C191E",
"m$	c #991F2B",
"n$	c #7E1D2A",
"o$	c #5F1C28",
"p$	c #761D29",
"q$	c #7D1D2A",
"r$	c #901F2C",
"s$	c #941F2B",
"t$	c #741D29",
"u$	c #7A1E29",
"v$	c #A4202D",
"w$	c #A5212D",
"x$	c #4C1921",
"y$	c #49161B",
"z$	c #911E29",
"A$	c #BE232F",
"B$	c #6E1D28",
"C$	c #B0222E",
"D$	c #B3222E",
"E$	c #C32430",
"F$	c #711D29",
"G$	c #32161B",
"H$	c #242424",
"I$	c #69181D",
"J$	c #7A1A22",
"K$	c #901E29",
"L$	c #BF2330",
"M$	c #B2222E",
"N$	c #AC212E",
"O$	c #471921",
"P$	c #5C1C28",
"Q$	c #8B1F2B",
"R$	c #B9232F",
"S$	c #931F2C",
"T$	c #B4222E",
"U$	c #541A22",
"V$	c #1F1F1F",
"W$	c #63181C",
"X$	c #AC202A",
"Y$	c #B1222E",
"Z$	c #B4222F",
"`$	c #6A1D28",
" %	c #5B1920",
".%	c #6C1D29",
"+%	c #2C1519",
"@%	c #202020",
"#%	c #A2212C",
"$%	c #57161A",
"%%	c #7A1C25",
"&%	c #991F28",
"*%	c #701D28",
"=%	c #C22330",
"-%	c #791D2A",
";%	c #571A24",
">%	c #241417",
",%	c #55171C",
"'%	c #A1212C",
")%	c #751E29",
"!%	c #781D29",
"~%	c #261517",
"{%	c #57171A",
"]%	c #B3222F",
"^%	c #611921",
"/%	c #971D26",
"(%	c #5A1F29",
"_%	c #723336",
":%	c #6A1A20",
"<%	c #561A24",
"[%	c #201415",
"}%	c #522729",
"|%	c #4F2C2E",
"1%	c #751A24",
"2%	c #781E29",
"3%	c #44191D",
"4%	c #623536",
"5%	c #3E171A",
"6%	c #39171C",
"7%	c #602326",
"8%	c #5D3032",
"9%	c #2E1315",
"0%	c #461416",
"a%	c #653133",
"b%	c #5F2225",
"c%	c #7A1C28",
"d%	c #5B1D28",
"e%	c #4E2229",
"f%	c #46161B",
"g%	c #571B25",
"h%	c #4D1A23",
"i%	c #181314",
"j%	c #161818",
"k%	c #291214",
"l%	c #523233",
"m%	c #352021",
"n%	c #161414",
"o%	c #1A1B1B",
"p%	c #171314",
"q%	c #94202B",
"r%	c #181919",
"s%	c #1B1C1C",
"t%	c #331517",
"u%	c #5A1C26",
"v%	c #831D29",
"w%	c #791D29",
"x%	c #531C26",
"y%	c #571B26",
"z%	c #461820",
"A%	c #1D1415",
"B%	c #1C1415",
"C%	c #8A1F26",
"D%	c #47161B",
"E%	c #681C27",
"F%	c #801D2A",
"G%	c #4A1921",
"H%	c #5B1C26",
"I%	c #531B25",
"J%	c #241517",
"K%	c #262A2A",
"L%	c #662E32",
"M%	c #831C29",
"N%	c #641B26",
"O%	c #2D1519",
"P%	c #211415",
"Q%	c #81242D",
"R%	c #741C26",
"S%	c #441920",
"T%	c #151313",
"U%	c #232323",
"V%	c #2C2D2D",
"W%	c #38161B",
"X%	c #403334",
"Y%	c #781E2A",
"Z%	c #1F1718",
"`%	c #431920",
" &	c #161314",
".&	c #0C1312",
"+&	c #091312",
"                                                                                                                                ",
"                                                                                                                                ",
"                                                                                                                                ",
"                                                                                                                                ",
"                                                                                                                                ",
"                    . . .                                       . . .                                                           ",
"                  + . .                                           . + +                                                         ",
"                @ # $ .                                           + % & @                                                       ",
"              + * = -                                               - ; * +                                                     ",
"            . . > , +                                               + = ; . .                                                   ",
"            + ' ) # +                                               + , ) ! +                                                   ",
"          . + * ~ #                                                   , ~ ' + .                                                 ",
"          . + * ~ #                                                   , ~ ' + .                                                 ",
"        . . + * ~ #                                                 { , ~ ' + . .                                               ",
"        . . + * ~ & @                                               @ , ~ ' + . .                                               ",
"      . . . + & ~ ] ^ .                                           + ^ / ~ ' + . . .                                             ",
"      . . . . ( _ ~ ! +                                           + : ~ _ ( . . . .                                             ",
"      . . . . @ ; ~ _ ^ .                                       . < [ ~ , @ . . . .                                             ",
"      . . . . . ^ _ ~ $ .                                       . % ~ / ^ . . . . .                                             ",
"        . . . . @ } ) | 1 .                                   . ^ | ) 2 @ . . . .                                               ",
"        . . . . . - [ ) | 3 .                               . 1 4 ) _ - . . . . .                                               ",
"        . . . . . @ 5 ) ) | 3 . .   6 6 6 6 6 6 6 6 6   . . 3 4 ) ) 7 @ . . . . .                                               ",
"          . . . . . 8 9 ) ) | ^ 0 a b c d e f g g f h i 0 ^ | ) ) 9 8 . . . . .                                                 ",
"          . . . . . + 5 j ) ) ) 5 k l m n o p q r s t u v ) ) ) j 5 + . . . . .                                                 ",
"            . . . . . w 5 ) ) x y z A B C C C D E F G H I x ) ) 5 . . . . . .         J K L                                     ",
"            . . . . . . 8 5 ) M N O P Q R R R S T U A V N W ) 5 w . . . . . .       X Y Z `  .                                  ",
"              . . . . . . ..2 +.@.#.Z R $.$.$.$.R %.&.A *.=.-.8 . . . . . .         ;.>.,.P '.).                                ",
"        !.~.    . . . . . . {.].^.&.Q $.$.$.$.$.$.R /.(.^._.:.. . . <.[..             }.Y |.n 1.2.                              ",
"    3.4.5.6.7.8.  . . . . . 9.0.a.%.R $.$.$.$.$.$.,.b.(.c.0.d.e.f.g.h.i.              j.k.%.P (.).                              ",
"    3.l.m.n.o.p.q.r.f.<.. [.s.t.u.v.w.R $.$.$.$.%.B x.y.z.A.t B.C.C.D.H E.F.G.G.G.G.r.H.I.J.T n K.L.                            ",
"    M.N.O.P.Q.n.R.S.T.U.V.W.X.Y.Z.`. +.+$.++@+#+$+%+&+*+Y.=+x.A.t t -+;+>+,+'+'+'+'+'+)+!+R T (.n ~+                            ",
"  {+]+^+n.r /+r r r r (+_+:+<+[+}+|+1+2+3+4+,.5+6+7+8+9+0+a+b+E /+s P.,.#+c+d+ +5+5+5+e+#.f+@+D (.g+L.                          ",
"  {+h+c+n./+t t t t t -+i+j+k+l+m+n+o+p+O.n.q+r+s+t+u+v+w+x+b+y+d z+A+B+O.C+d A.A.A.A.e s D+E+F+(.(.G+H+                        ",
"  {+]+^+n./+t t I+J+g -+i+j+K+L+M+N+O+P+Q+o R+S+T+U+V+W+X+Y+Z+(.`+t /+O  @t t t t t t t .@+@c+F+(.(.(.@@#@                      ",
"    M.N.n.$@J+-+%@g.h &@P.y+q *@=@-@*+;@>@n ,@'@)@!@~@{@]@^@(.(.P.t t t -+J+g t D.t t t t .@/@C (.(.(.g+ .                      ",
"    3.(@m.g+_@:@<@    [@}@(.|@1@z.z.y.2@n.(.y+3@4@4@5@6@7@n.n.(.j+8@t t -+9@%@I+0@:@t t t a@|.C (.(.(.(.S.b@                    ",
"    3.c@S d@[.a       i }@(.(.e@f@g@h@n.p.i@n.j@k@l@l@m@n@o@p@q@(.c.s t -+r@s@t@6 u@v@-+t w@x@C (.(.(.(.n.y@                    ",
"      z@%.g+A@        i }@(.B@C@D@E@F@G@H@I@J@(.K@L@M@N@O@P@Q@R@n S@s t B.T@        U@V@W@X@Y@Z@(.(.(.n.`@y@                    ",
"       ##+.#+#        i R.@###$#%#&#*#=#-#;#>#q.,#'#)#!#~#{#]#^#/#c.s -+(#            _#:#<#Y@Z@(.n.o.[#[#}#                    ",
"        |#%.p.8.        1#2#3#4#5#6#7#8#9#0#a#b#c#d#e#f#g#h#i#j#k#l#t -+:#                8.k.Z@n m#}#                          ",
"          n#/@~.        o#g+3#p#q#r#s#t#u#v#w#x#y#z#A#B#V+C#D#E#`+t t V@F#                8.k.Z@G#                              ",
"            H#` 8.      I#R.J#K#L#M#N#O#P#Q#R#S#Q#T#U#V#W#X#Y#y+q t t t@                  Z#`# $                                ",
"              .$          +$o.@$#$$$%$&$*$=$-$;$>$,$'$)$!$~$q@|@/+t :@{$                  ]$T H.                                ",
"                          ^$/$j@($_$:$<$[$}$|$1$2$3$4$:$5$q@j+r t t t %@                  6$7$                                  ",
"                            9@F `+:+n n /#8$9$(./#/#n n i+P.G t t /+0$a$b$                                                .     ",
"                        c$d$e$f$r g$E c.o (.(.(.(.(.|@c.p h$l#f$i$`+j$g$k$                                              . . .   ",
"                    H.l$m$m.m.D n$l#o$s p$q$q$q$S@r$s$t$u$3+!+O.v$$.E+w$x$U@                                          w 0 . .   ",
"                  y$z$S R R E+A$U (. @s t s s z+B$C$J.D$,.R $.4+E$$.A$++F$G$                                      . . < H$. .   ",
"              I$J$K$L$M$@+c+N$D$#+&.A r O$g -+P$Q$E+R$,.R $.Z S$c+R T$o m U$F#                                . + ^ V$' H$. .   ",
"            W$X$!+|.Y$r$A$L$y+S@Z$/.(.`$F#i.<@ %T$E+!+!+R $.c.u$c+A$B #.n@.%+%                            . + ^ @%: ' : ^ . .   ",
"            J Y &.#%m.h$%.L$i+c `+b.(.c.0.6   $%R ,.%%&%R $.*%F =%R$-%d q$E ;%>%                        . 3 % ! ' ' : 1 . . .   ",
"            ,%/.F+'%#+)%B #+i+t c !%n.n.8@~%  {%$.]%^%/%R E$*%(%_%:% @Q.C+n.E <%[%.                   . 0 ! ' ' ' ' : w . .     ",
"              }%|%1%.+2%3%4%5%6%s h$n@(.8@~%    7%8%9%0%a%b%c%d%e%f%-%e A.q$(.`+g%h%e.i%            . - ! ' ' ( - ! : w . .     ",
"                j%k%l%m%n%o%. p%X@q%!+n e$~%      r%.   s%8 t%u%i@v%w%x%s c m (.j+2@g%y%z%i A%A%A%B%..! % ....w @%: - . . .     ",
"                    0 w .   .     C%w$y+D%          .     . i E%.+F%G%e.t@s c c.j+n y+o p$u%H%H%H%I%J%8 w . . . w 8 . . .       ",
"                      .         K%L%M%N%O%                  P%Q%]%R%[.    S%s /+e E P.P.`+E E E c.A.J+T%. . . . . . . .         ",
"                              U%V%W%<@.                     U%X%Y%O$g.    [.a$h%s -+-+t t t t t -+t ;+_#. . . . . . .           ",
"                                + <.                      w } Z%`%<.        f. &O$V@h%-+-+-+-+-+B.V@V@t@<.. . . . .             ",
"                                                            { <.s@              .&.&F#h h h h h {$.&.&a . . . .                 ",
"                                                                                      +&+&+&+&+&                                ",
"                                                                                                                                ",
"                                                                                                                                ",
"                                                                                                                                ",
"                                                                                                                                "};
