/* XPM */
static char * player_walk1_xpm[] = {
"64 64 620 2",
"  	c None",
". 	c #131313",
"+ 	c #151515",
"@ 	c #141414",
"# 	c #161616",
"$ 	c #2D2D2D",
"% 	c #202020",
"& 	c #121212",
"* 	c #303030",
"= 	c #1F1F1F",
"- 	c #222222",
"; 	c #2E2E2E",
"> 	c #383838",
", 	c #2B2B2B",
"' 	c #393939",
") 	c #181818",
"! 	c #3D3D3D",
"~ 	c #3A3A3A",
"{ 	c #363636",
"] 	c #111111",
"^ 	c #171717",
"/ 	c #3C3C3C",
"( 	c #353535",
"_ 	c #252525",
": 	c #3E3E3E",
"< 	c #3B3B3B",
"[ 	c #292929",
"} 	c #373737",
"| 	c #111313",
"1 	c #57161A",
"2 	c #59171A",
"3 	c #5A171A",
"4 	c #58171A",
"5 	c #291518",
"6 	c #281518",
"7 	c #271517",
"8 	c #232323",
"9 	c #2F2F2F",
"0 	c #1B1B1B",
"a 	c #101313",
"b 	c #511619",
"c 	c #6E191E",
"d 	c #AE222D",
"e 	c #B0222E",
"f 	c #AD222E",
"g 	c #581C27",
"h 	c #571C27",
"i 	c #4E1A23",
"j 	c #2E1519",
"k 	c #2F1619",
"l 	c #041313",
"m 	c #262626",
"n 	c #212121",
"o 	c #0A1313",
"p 	c #7A1A20",
"q 	c #A31F29",
"r 	c #4C1921",
"s 	c #441921",
"t 	c #431921",
"u 	c #521C26",
"v 	c #38171C",
"w 	c #37171C",
"x 	c #851B22",
"y 	c #8C1C23",
"z 	c #71191E",
"A 	c #061312",
"B 	c #101010",
"C 	c #1D1D1D",
"D 	c #021312",
"E 	c #001312",
"F 	c #0E1312",
"G 	c #0B1312",
"H 	c #31161A",
"I 	c #531B26",
"J 	c #41181F",
"K 	c #40181F",
"L 	c #521B25",
"M 	c #591C28",
"N 	c #471921",
"O 	c #3D171E",
"P 	c #001211",
"Q 	c #62171B",
"R 	c #9A1E26",
"S 	c #96202B",
"T 	c #96202C",
"U 	c #7E1D28",
"V 	c #261518",
"W 	c #272727",
"X 	c #0F1312",
"Y 	c #3E181E",
"Z 	c #411820",
"` 	c #421820",
" .	c #431820",
"..	c #2C1519",
"+.	c #121313",
"@.	c #1C1C1C",
"#.	c #3F181E",
"$.	c #541B26",
"%.	c #441820",
"&.	c #42181F",
"*.	c #461921",
"=.	c #3C171D",
"-.	c #3B171D",
";.	c #441920",
">.	c #36161B",
",.	c #A01F28",
"'.	c #9E1F29",
").	c #891F2B",
"!.	c #621D28",
"~.	c #541C27",
"{.	c #561C27",
"].	c #0C1211",
"^.	c #4C1A23",
"/.	c #7A1D2A",
"(.	c #7C1E2A",
"_.	c #681D28",
":.	c #4D1A23",
"<.	c #1F1819",
"[.	c #333333",
"}.	c #313131",
"|.	c #2C1518",
"1.	c #491922",
"2.	c #34161B",
"3.	c #071313",
"4.	c #991E26",
"5.	c #821E2A",
"6.	c #731E29",
"7.	c #511B25",
"8.	c #201415",
"9.	c #35151B",
"0.	c #761D29",
"a.	c #891E2B",
"b.	c #8A1E2B",
"c.	c #841E2B",
"d.	c #801E2A",
"e.	c #241A1B",
"f.	c #251417",
"g.	c #B5222C",
"h.	c #891F2A",
"i.	c #591C27",
"j.	c #481921",
"k.	c #1C1415",
"l.	c #2D1D1F",
"m.	c #6D1C28",
"n.	c #BA232F",
"o.	c #BD232F",
"p.	c #BC232F",
"q.	c #8C1E2B",
"r.	c #861E2B",
"s.	c #4F1B24",
"t.	c #4A1A22",
"u.	c #551C26",
"v.	c #791D28",
"w.	c #231416",
"x.	c #411517",
"y.	c #4F1A22",
"z.	c #4F1A24",
"A.	c #141313",
"B.	c #33171B",
"C.	c #731D29",
"D.	c #B4222F",
"E.	c #C42430",
"F.	c #C02430",
"G.	c #AD212E",
"H.	c #881E2B",
"I.	c #5E1C27",
"J.	c #292424",
"K.	c #3B3C3C",
"L.	c #36161C",
"M.	c #5D1C27",
"N.	c #7C1D2A",
"O.	c #3B1518",
"P.	c #1A1314",
"Q.	c #221416",
"R.	c #35161B",
"S.	c #1F1415",
"T.	c #1C1617",
"U.	c #621C27",
"V.	c #8D1E2B",
"W.	c #B9232F",
"X.	c #9C202C",
"Y.	c #851E2B",
"Z.	c #491A22",
"`.	c #121615",
" +	c #56191F",
".+	c #661C28",
"++	c #721D29",
"@+	c #601C28",
"#+	c #6D1D29",
"$+	c #801D29",
"%+	c #2D1416",
"&+	c #821D2A",
"*+	c #141314",
"=+	c #301619",
"-+	c #B1222E",
";+	c #991F2C",
">+	c #871E2B",
",+	c #5A1B24",
"'+	c #211416",
")+	c #1E1415",
"!+	c #4F1619",
"~+	c #A8212D",
"{+	c #641C28",
"]+	c #32161A",
"^+	c #3A171D",
"/+	c #6C1D29",
"(+	c #781D29",
"_+	c #721B25",
":+	c #721A22",
"<+	c #221314",
"[+	c #0A1312",
"}+	c #4E1325",
"|+	c #87182B",
"1+	c #B4222E",
"2+	c #C22430",
"3+	c #A2202D",
"4+	c #7C172A",
"5+	c #77142A",
"6+	c #701729",
"7+	c #451921",
"8+	c #881C23",
"9+	c #A9212D",
"0+	c #631D28",
"a+	c #6E1A24",
"b+	c #8B1E2B",
"c+	c #351518",
"d+	c #521C27",
"e+	c #B4232E",
"f+	c #2D1415",
"g+	c #3A1518",
"h+	c #49131F",
"i+	c #B06B20",
"j+	c #AE6522",
"k+	c #78112A",
"l+	c #A5212D",
"m+	c #C32430",
"n+	c #BB232F",
"o+	c #7C132A",
"p+	c #A96123",
"q+	c #BB7120",
"r+	c #A66222",
"s+	c #641828",
"t+	c #5C1C28",
"u+	c #201416",
"v+	c #74191F",
"w+	c #8A1C23",
"x+	c #A0212C",
"y+	c #8A1F2A",
"z+	c #6E1D29",
"A+	c #3D181E",
"B+	c #861E2A",
"C+	c #851D2A",
"D+	c #591921",
"E+	c #2F1416",
"F+	c #371518",
"G+	c #551C27",
"H+	c #921D26",
"I+	c #761B26",
"J+	c #6A1329",
"K+	c #F39A17",
"L+	c #F7AE1C",
"M+	c #A45A23",
"N+	c #80182B",
"O+	c #AF222E",
"P+	c #AC212E",
"Q+	c #841A2B",
"R+	c #9C5325",
"S+	c #F49814",
"T+	c #FFB61C",
"U+	c #E18D1A",
"V+	c #71102A",
"W+	c #491920",
"X+	c #981F29",
"Y+	c #531C27",
"Z+	c #6C1D28",
"`+	c #611B25",
" @	c #5E1820",
".@	c #5A181F",
"+@	c #401519",
"@@	c #7B1C27",
"#@	c #541A23",
"$@	c #681329",
"%@	c #F19C1C",
"&@	c #FFD944",
"*@	c #F0A61B",
"=@	c #8F4826",
"-@	c #981F2C",
";@	c #721729",
">@	c #853F27",
",@	c #EDA11B",
"'@	c #FFD040",
")@	c #FFC728",
"!@	c #DF8C1B",
"~@	c #7D1D2A",
"{@	c #5F1B24",
"]@	c #741E29",
"^@	c #651C28",
"/@	c #751D2A",
"(@	c #711B24",
"_@	c #5F1C28",
":@	c #7D1E29",
"<@	c #F09A1A",
"[@	c #FFD53C",
"}@	c #FFD53E",
"|@	c #EC9D1B",
"1@	c #783028",
"2@	c #721529",
"3@	c #D7851C",
"4@	c #EA9A1B",
"5@	c #FFD13A",
"6@	c #FFEA55",
"7@	c #FFC82B",
"8@	c #DF8B1B",
"9@	c #71112A",
"0@	c #611C28",
"a@	c #7B1D2A",
"b@	c #7F1E2A",
"c@	c #831E2A",
"d@	c #741D29",
"e@	c #811D29",
"f@	c #421619",
"g@	c #501922",
"h@	c #6D1C29",
"i@	c #894C25",
"j@	c #FAA71C",
"k@	c #FBAB22",
"l@	c #FCA116",
"m@	c #743427",
"n@	c #6A1229",
"o@	c #EB9519",
"p@	c #FFC82E",
"q@	c #FFE754",
"r@	c #FFD63E",
"s@	c #F5A51C",
"t@	c #843F27",
"u@	c #861C2B",
"v@	c #3D1619",
"w@	c #261517",
"x@	c #641E28",
"y@	c #773A26",
"z@	c #783A26",
"A@	c #85212A",
"B@	c #871D2B",
"C@	c #813E26",
"D@	c #F5A01A",
"E@	c #F7A522",
"F@	c #F7A21B",
"G@	c #8A4925",
"H@	c #841D2A",
"I@	c #1D1415",
"J@	c #191314",
"K@	c #5B1B26",
"L@	c #801B29",
"M@	c #831C2A",
"N@	c #831D29",
"O@	c #871F2B",
"P@	c #6E2C27",
"Q@	c #6D2D27",
"R@	c #861F2B",
"S@	c #861D2A",
"T@	c #7F1B28",
"U@	c #771D29",
"V@	c #5B1C27",
"W@	c #801D28",
"X@	c #3D1518",
"Y@	c #241415",
"Z@	c #1D1414",
"`@	c #3A1519",
" #	c #7B2127",
".#	c #825C1C",
"+#	c #7F4B20",
"@#	c #7D3B23",
"##	c #821C29",
"$#	c #4F111D",
"%#	c #801929",
"&#	c #871D2A",
"*#	c #861C2A",
"=#	c #771327",
"-#	c #791A27",
";#	c #7C3022",
">#	c #855412",
",#	c #7C2C24",
"'#	c #151313",
")#	c #1C1314",
"!#	c #7A1C27",
"~#	c #52171D",
"{#	c #381518",
"]#	c #8B1E2C",
"^#	c #7B1928",
"/#	c #9D6417",
"(#	c #E4B321",
"_#	c #B7982B",
":#	c #8C7522",
"<#	c #742F23",
"[#	c #90651D",
"}#	c #8C601E",
"|#	c #773323",
"1#	c #7B3B23",
"2#	c #9D7A18",
"3#	c #574514",
"4#	c #6F2523",
"5#	c #BF8C19",
"6#	c #FFAB17",
"7#	c #7B4C14",
"8#	c #871E2A",
"9#	c #351517",
"0#	c #621921",
"a#	c #331417",
"b#	c #781C26",
"c#	c #500A1E",
"d#	c #F19B15",
"e#	c #F1BC22",
"f#	c #DAC142",
"g#	c #C9AB34",
"h#	c #60521B",
"i#	c #D8B736",
"j#	c #CAAB33",
"k#	c #BE9823",
"l#	c #766520",
"m#	c #FFDD41",
"n#	c #917A25",
"o#	c #B18C1E",
"p#	c #FFD63A",
"q#	c #7B4C13",
"r#	c #841E2A",
"s#	c #6B1D28",
"t#	c #55171E",
"u#	c #510B1E",
"v#	c #FFC825",
"w#	c #FFD235",
"x#	c #FFDD45",
"y#	c #CFA92C",
"z#	c #EED54A",
"A#	c #E8CE46",
"B#	c #FFDF49",
"C#	c #D1AC2F",
"D#	c #FFEE59",
"E#	c #D6C64A",
"F#	c #FDDC47",
"G#	c #FFDF4D",
"H#	c #DC9414",
"I#	c #7B3720",
"J#	c #56171E",
"K#	c #A16516",
"L#	c #FFB61E",
"M#	c #D8A91F",
"N#	c #EBC336",
"O#	c #FFCF2F",
"P#	c #FFE854",
"Q#	c #FFE853",
"R#	c #FFDB43",
"S#	c #FFE34D",
"T#	c #FFEC58",
"U#	c #FFDE46",
"V#	c #FFE954",
"W#	c #EBBF34",
"X#	c #823E1C",
"Y#	c #841B2A",
"Z#	c #6A1D28",
"`#	c #771B26",
" $	c #791D26",
".$	c #AE7115",
"+$	c #BF8016",
"@$	c #DEAE20",
"#$	c #A6841E",
"$$	c #FFD237",
"%$	c #FFD337",
"&$	c #AA8720",
"*$	c #FDD037",
"=$	c #B69223",
"-$	c #F0C533",
";$	c #845C1C",
">$	c #811629",
",$	c #4D1921",
"'$	c #7C2925",
")$	c #7A381F",
"!$	c #784F1D",
"~$	c #7C2C26",
"{$	c #B18A1C",
"]$	c #BE941D",
"^$	c #7B2D25",
"/$	c #755818",
"($	c #755A17",
"_$	c #7B3524",
":$	c #77521B",
"<$	c #811A29",
"[$	c #531B25",
"}$	c #241417",
"|$	c #792F24",
"1$	c #763323",
"2$	c #1E1E1E",
"3$	c #381517",
"4$	c #531A22",
"5$	c #5F1C27",
"6$	c #701D29",
"7$	c #811E2A",
"8$	c #621C28",
"9$	c #7E1E2A",
"0$	c #7B1E29",
"a$	c #561B26",
"b$	c #1A1A1A",
"c$	c #42161A",
"d$	c #6A191E",
"e$	c #971F2C",
"f$	c #94202B",
"g$	c #AE222E",
"h$	c #9F202D",
"i$	c #711D28",
"j$	c #2B1518",
"k$	c #191919",
"l$	c #3F1519",
"m$	c #911E2A",
"n$	c #C52430",
"o$	c #9B202C",
"p$	c #661D28",
"q$	c #C62430",
"r$	c #A6212D",
"s$	c #4B1A23",
"t$	c #242424",
"u$	c #7B1A21",
"v$	c #861D27",
"w$	c #BF2330",
"x$	c #B3222E",
"y$	c #B7232F",
"z$	c #571C26",
"A$	c #B5222F",
"B$	c #931F2C",
"C$	c #651B26",
"D$	c #2F161A",
"E$	c #921D25",
"F$	c #B5232F",
"G$	c #A3212D",
"H$	c #45181F",
"I$	c #8F1F2B",
"J$	c #BF232F",
"K$	c #3A171E",
"L$	c #101212",
"M$	c #BC232E",
"N$	c #9A202C",
"O$	c #7D1E2A",
"P$	c #A3202D",
"Q$	c #7A1D29",
"R$	c #071212",
"S$	c #2B1414",
"T$	c #631A22",
"U$	c #C32330",
"V$	c #671C28",
"W$	c #621B25",
"X$	c #161918",
"Y$	c #011312",
"Z$	c #971F2B",
"`$	c #99202C",
" %	c #691D28",
".%	c #A4202D",
"+%	c #5A1C27",
"@%	c #481922",
"#%	c #2E1415",
"$%	c #4A161C",
"%%	c #BD232E",
"&%	c #571D27",
"*%	c #743336",
"=%	c #6A1921",
"-%	c #781D2A",
";%	c #591B24",
">%	c #451920",
",%	c #42191C",
"'%	c #5B3234",
")%	c #6E1922",
"!%	c #B9242F",
"~%	c #5E1C26",
"{%	c #502628",
"]%	c #522729",
"^%	c #301519",
"/%	c #5E2023",
"(%	c #592E2F",
"_%	c #241314",
":%	c #591B1E",
"<%	c #633233",
"[%	c #721A23",
"}%	c #611D28",
"|%	c #4E2229",
"1%	c #57181E",
"2%	c #6F1D29",
"3%	c #5C1C27",
"4%	c #731D28",
"5%	c #501B24",
"6%	c #511B24",
"7%	c #251213",
"8%	c #513334",
"9%	c #251719",
"0%	c #30161A",
"a%	c #95202B",
"b%	c #181919",
"c%	c #261314",
"d%	c #681C28",
"e%	c #241416",
"f%	c #8A2027",
"g%	c #7E1D29",
"h%	c #161314",
"i%	c #5A1B25",
"j%	c #B8232F",
"k%	c #37161B",
"l%	c #252727",
"m%	c #642D32",
"n%	c #7E1C28",
"o%	c #511A23",
"p%	c #001111",
"q%	c #74242B",
"r%	c #641A23",
"s%	c #4E1A24",
"t%	c #35151A",
"u%	c #2D1519",
"v%	c #343232",
"w%	c #751E29",
"x%	c #3C171E",
"y%	c #0C1312",
"z%	c #2A2A2A",
"A%	c #1C1B1B",
"B%	c #3F181F",
"C%	c #0D1312",
"                                                                                                                                ",
"                                                                                                                                ",
"                                                                                                                                ",
"                                                                                                                                ",
"                                                                                                                                ",
"                                                                                                                                ",
"                          . .                                     .                                                             ",
"                          . . .                                 . . .                                                           ",
"                        + @ .                                     . # @                                                         ",
"                      + $ % .                                     & * = .                                                       ",
"                    . - ; .                                         @ > . .                                                     ",
"                  . @ , ; &                                         & ' % .                                                     ",
"                  . ) ! $ &                                         & ~ { ] .                                                   ",
"                  . ) ! $                                           & ~ { ] .                                                   ",
"                . . ) ! $                                           & ~ { ] . .                                                 ",
"                . . ) ! $ &                                         & ~ { ] . .                                                 ",
"              . . . ) ! $ .                                         . ~ { ] . .                                                 ",
"              . . . ^ / / % .                                     ] * ! ( ] . . .                                               ",
"              . . . . _ : _ .                                     + ( < ^ . . . .                                               ",
"              . . . . % < / ^ .                                 . [ ! } . | | 1 2 3 4 5 6 6 6 6 6 6 6 6 6 6 7                   ",
"              . . . . & ; ! 8 &                                 + 9 : 0 a b c d e e f g h h h h h h h h h h i j k               ",
"                l . . & m < < n ]                             & , : { ) o p q r s t u g g h h h h h h h h h h g h v w 5         ",
"            x y z A . . B } ! > C &                         ] [ ! : m . . D E F G H I J K L g g h h h h h h h h h M M N O       ",
"      P Q R S T U V . . & W / ! { ) & X Y Z Z `  . . ...+.] _ < ! } @.. . . . . ..#.$.%.&.L O *.g h h h h h h h h =.-.=.O ;.>.  ",
"      ,.'.).!.~.{.>.. . . . / ! ! ( ; ].^./.(._.h h g :.<.[.' ! ! }.] . . . .   |. .w #.g h 1.&.^.h h h h h h *.2.        >.j   ",
"  3.4.5.6.~.h h h 7.8.. . . _ ! ! ! } 9.0.a.b.c.d./.h g e.! ! ! ' @.. . . .       N :.j g h h $.-.L h h h h :.f.                ",
"4 g.h.i.h h h h j.5 k.. . . @ , ! / l.m.b.n.o.o.p.q.r._.s.[ ! / C . . . . .       j.h t.&.h h h $.2.u.h i.v.w.                  ",
"  x.y.$.h h h z.O $.L A.. . . @ }.~ B.C.D.E.E.E.E.F.G.H.I.J.K.- . . . . .       L.{.h :.Y h g M.i.I >.i.N.O.                    ",
"    P.Q.L h {.R.h h M.P.S.. . . + T.U.V.W.E.E.E.E.E.E.X.Y.Z.`.@ . . . . .        +h h z.Y {..+a.++@+{.#+$+%+                    ",
"        k I h {.M..+&+k N *++.. +.=+C.-+E.E.E.E.E.E.F.;+>+,+S.| | '+)+.       !+~+~.h h #.:.r.a.a.H.{+h ]+                      ",
"          ^+u./+(+b._+K h :+<+a [+}+|+1+F.E.E.E.E.2+3+4+5+6+7+R.>.*. .        8+9+~.{.{.#.:.>+a.a.a.Y.0+J                       ",
"            #.a+b+b.c+h d+e+f+g+h+i+j+k+l+m+o.n+E.~+o+p+q+r+s+t+g h h u+  v+w+x+y+~.z+/+A+-.B+a.b.b.C+D+` S.                    ",
"              E+_+b+F+h G+y+H+I+J+K+L+M+N+~+1+O+P+Q+R+S+T+U+V+/.g {.z+W+Q X+T h Y+Z+H.r.`+w.C+b._+ @.@                          ",
"                +@@@#@h h {.p.a.$@%@&@*@=@a.;+-@;@>@,@'@)@!@V+a.i.{.~@M.{@]@Y+{.^@Y.a.a./@j C+@@+@                              ",
"                  (@_@h h h :@b.$@<@[@}@|@1@a.2@3@4@5@6@7@8@9@a./.{.0@a@h G+(+b@c@a.a.a.d@s.e@f@                                ",
"                  g@h h h h I.b.h@i@j@k@l@m@b.n@o@p@q@r@s@t@u@a.c@{.{.c@c@c@H.a.a.a.a.a.>+{+v@                                  ",
"                  8.w@$.u.h _@b.>+x@y@z@z@A@a.B@C@D@E@F@G@>+a.a.c@i.h @+a.a.a.a.a.a.C+H@C+U.I@                                  ",
"                      J@J h K@b.a.>+L@M@C+H.N@a.O@P@Q@Q@R@S@T@>+a.U@{.V@&+W@W@a.a.H@X@Y@Y@Z@                                    ",
"                        -.u.`@b.b. #.#+#@###$#%#&#*#=#-#&#;#>#,#a.(+{.{.N '#)#!#C+~#                                            ",
"                          &.{#]#^#/#(#_#:#<#[#}#|#1#2#3#4#5#6#7#8#(+{.$.|     9#0#                                              ",
"                            a#b#c#d#e#f#g#h#i#j#k#l#m#n#o#p#T+q#r#s#{.u..                                                       ",
"                              t#u#d#v#w#x#y#z#A#B#C#D#E#F#G#H#I#5.G+h K                                     . . .               ",
"                              J#^#K#L#M#N#O#P#Q#R#S#T#U#V#W#X#Y#Z#h g '+                                  . . . . .             ",
"                              g+`# $.$+$@$#$$$%$&$*$%$=$-$;$>$H.i.g #.                                  . + 8 0 . .             ",
"                                ,$c@'$)$!$~${$]$^$/$($_$:$<$a.Z#h h [$Q.                              . n _ W C . .             ",
"                                }$K@r#H@C+H.|$1$H.N@N@>+H@>+++g h i.i.5                             . 2$W W - @ . .             ",
"                              3$4$5$@+6$c.c.H.H.a.H.r.Y.7$0@_._@8$9$0$a$.                         . b$W W m @ . .               ",
"                          c$d$-@-@e$5.{+V@M.7$d.d.N.9$r#_.f$g$q.h$E.E.i$j$                      . k$W W W 8 . . .               ",
"                        l$m$E.E.n$E.o$a.p$h h {.{._.-+q$r$n$q$-@m+E.n.q.s$                      & _ W W t$@ . . .               ",
"                      u$v$w$x$n$y$e w$-@0.z$s$g i.c@q$A$m+E.W.B$2+n$h$>+C$D$                  . k$m m % ^ . . . .               ",
"                    E$F$G$e B$n$3+U@e G.a.a$w.#.H$O+q$I$J$n$X.d@2+n.B+H.b@K$                G L$n W @.& . . . .                 ",
"                  E M$-+N$-@O$q$P$@+Q$-@a.U@^+R$S$m+y$T$o.n$f$i.U$-+V$#+r.W$7 F             ;.-.X$@.. . . . . .                 ",
"                  Y$Z$-+`$n. %G..%@++%(+a.Y.@%  #%2+g$$%%%n$f$&%*%=%-%@+a.Y.;%s$K X . . F >%(+$.]++.. . . . .                   ",
"                    ,%'%)%!%~%{%]%^%G+C.b.Y.@%    /%(%_%:%<%[%}%|%1%2%3%H.a.c.5.4%5%6%6%5%U@{+h ^+. . . .                       ",
"                      k$7%8%9%# # A.0%a%N$Y.*.      ) .   b%c%[$>+C+d%u.Z#H.a.a.H.Y.Y.c.c@_.h {.L e%. .                         ",
"                          ^ . . .     f%N$g%h%              F i%j%0.k%w.$.C.c.c.c.c.c.N.i.g L N P.'#.                           ",
"                            .       l%m%n%o%a               p%q%-+r%    k z.z$g g g g g [$s%S.h%                                ",
"                                  ^ 9 t%u%|                 - v%w%x%      y%;.t.t.t.t.t.-.X                                     ",
"                                    ] a                     z%A%B%            C%C%C%C%C%                                        ",
"                                                                                                                                ",
"                                                                                                                                ",
"                                                                                                                                ",
"                                                                                                                                ",
"                                                                                                                                "};
