/* XPM */
static char * player_walk2_xpm[] = {
"64 64 667 2",
"  	c None",
". 	c #131313",
"+ 	c #121212",
"@ 	c #111111",
"# 	c #282828",
"$ 	c #272727",
"% 	c #2F2F2F",
"& 	c #1C1C1C",
"* 	c #2E2E2E",
"= 	c #191919",
"- 	c #1E1E1E",
"; 	c #333333",
"> 	c #1B1B1B",
", 	c #2D2D2D",
"' 	c #141414",
") 	c #373737",
"! 	c #202020",
"~ 	c #3D3D3D",
"{ 	c #383838",
"] 	c #3B3B3B",
"^ 	c #292929",
"/ 	c #3E3E3E",
"( 	c #3C3C3C",
"_ 	c #101010",
": 	c #232323",
"< 	c #2C2C2C",
"[ 	c #323232",
"} 	c #161616",
"| 	c #2B2B2B",
"1 	c #3A3A3A",
"2 	c #262626",
"3 	c #303030",
"4 	c #1D1D1D",
"5 	c #151515",
"6 	c #363636",
"7 	c #242424",
"8 	c #171717",
"9 	c #2A2A2A",
"0 	c #343434",
"a 	c #222222",
"b 	c #2F1619",
"c 	c #2E1619",
"d 	c #301619",
"e 	c #30161A",
"f 	c #2D1519",
"g 	c #353535",
"h 	c #313131",
"i 	c #191314",
"j 	c #541B26",
"k 	c #6B1D29",
"l 	c #6C1D29",
"m 	c #691D28",
"n 	c #571C27",
"o 	c #561C27",
"p 	c #581C27",
"q 	c #4E1A23",
"r 	c #2A1418",
"s 	c #1D1E1E",
"t 	c #252525",
"u 	c #393939",
"v 	c #3C171D",
"w 	c #701D28",
"x 	c #871E2B",
"y 	c #881E2B",
"z 	c #851E2B",
"A 	c #701D29",
"B 	c #6B1D28",
"C 	c #551C27",
"D 	c #44171F",
"E 	c #2A2C2C",
"F 	c #431C22",
"G 	c #731D29",
"H 	c #8A1E2B",
"I 	c #AB212E",
"J 	c #AE222E",
"K 	c #AF222E",
"L 	c #A7212D",
"M 	c #831E2A",
"N 	c #761D29",
"O 	c #4E1A24",
"P 	c #392125",
"Q 	c #343535",
"R 	c #212121",
"S 	c #201F1F",
"T 	c #531B25",
"U 	c #B1222E",
"V 	c #C42430",
"W 	c #C52430",
"X 	c #C12430",
"Y 	c #B4222E",
"Z 	c #A8212D",
"` 	c #841E2B",
" .	c #6E1D29",
"..	c #3F161E",
"+.	c #2B2D2D",
"@.	c #1A1A1A",
"#.	c #491C23",
"$.	c #7A1D29",
"%.	c #8C1E2B",
"&.	c #C02430",
"*.	c #A9212E",
"=.	c #6C1C27",
"-.	c #3A1E22",
";.	c #202222",
">.	c #531B24",
",.	c #B8232F",
"'.	c #C32430",
").	c #B0222E",
"!.	c #771D2A",
"~.	c #40181F",
"{.	c #161313",
"].	c #181314",
"^.	c #141313",
"/.	c #121313",
"(.	c #4B1A22",
"_.	c #7D1D2A",
":.	c #B4222F",
"<.	c #C02330",
"[.	c #B2222E",
"}.	c #8B1E2B",
"|.	c #6E1D28",
"1.	c #531B26",
"2.	c #3B171D",
"3.	c #1E1415",
"4.	c #201415",
"5.	c #4C1A23",
"6.	c #2F1519",
"7.	c #111313",
"8.	c #321417",
"9.	c #2D1417",
"0.	c #774022",
"a.	c #874825",
"b.	c #85272A",
"c.	c #8E1E2B",
"d.	c #B9232F",
"e.	c #BE232F",
"f.	c #881C2B",
"g.	c #843228",
"h.	c #874925",
"i.	c #713726",
"j.	c #5C1B27",
"k.	c #5A1C27",
"l.	c #551C26",
"m.	c #561C26",
"n.	c #32161A",
"o.	c #411619",
"p.	c #791C26",
"q.	c #671B28",
"r.	c #E5901A",
"s.	c #FEA917",
"t.	c #AD6922",
"u.	c #812629",
"v.	c #8D1E2B",
"w.	c #B6222F",
"x.	c #971F2C",
"y.	c #861B2B",
"z.	c #843328",
"A.	c #C6791E",
"B.	c #FFA715",
"C.	c #FFA917",
"D.	c #C1761F",
"E.	c #71112A",
"F.	c #5C1C27",
"G.	c #231416",
"H.	c #001312",
"I.	c #6F1A24",
"J.	c #E6911A",
"K.	c #FFCD37",
"L.	c #FEB521",
"M.	c #B66F21",
"N.	c #7E2529",
"O.	c #AC212E",
"P.	c #921F2C",
"Q.	c #A9202E",
"R.	c #76122A",
"S.	c #853628",
"T.	c #CB831E",
"U.	c #FFB626",
"V.	c #FFC430",
"W.	c #FFB91D",
"X.	c #C1751F",
"Y.	c #70102A",
"Z.	c #681D28",
"`.	c #3A171D",
" +	c #E7921A",
".+	c #FFD440",
"++	c #FFDA42",
"@+	c #FEB924",
"#+	c #BF7720",
"$+	c #7E2A29",
"%+	c #861D2B",
"&+	c #863A28",
"*+	c #BA7020",
"=+	c #D1871D",
"-+	c #FFC12A",
";+	c #FFE24C",
">+	c #FFE049",
",+	c #FFB91C",
"'+	c #C3761E",
")+	c #7A1D2A",
"!+	c #5F1C28",
"~+	c #741D29",
"{+	c #591C27",
"]+	c #3E181E",
"^+	c #671C28",
"/+	c #AB6622",
"(+	c #F6AB1C",
"_+	c #FFC539",
":+	c #FFB822",
"<+	c #FBA116",
"[+	c #733726",
"}+	c #821C2A",
"|+	c #8F5124",
"1+	c #FFA915",
"2+	c #FFC52D",
"3+	c #FFE44E",
"4+	c #FFE751",
"5+	c #FFCC35",
"6+	c #E59B1D",
"7+	c #9A5125",
"8+	c #7F192A",
"9+	c #891E2B",
"0+	c #6A1D28",
"a+	c #6D1D29",
"b+	c #861E2B",
"c+	c #771D29",
"d+	c #1B1414",
"e+	c #001211",
"f+	c #6E1A24",
"g+	c #7F1E2A",
"h+	c #5D1728",
"i+	c #9D5A23",
"j+	c #AA6320",
"k+	c #AA6421",
"l+	c #A76222",
"m+	c #802829",
"n+	c #871D2B",
"o+	c #853328",
"p+	c #C27C20",
"q+	c #FFB625",
"r+	c #FFC037",
"s+	c #FFBB2D",
"t+	c #E2971C",
"u+	c #924826",
"v+	c #80152B",
"w+	c #791D29",
"x+	c #4A1921",
"y+	c #8F1D24",
"z+	c #991F2B",
"A+	c #821E2A",
"B+	c #7D1A2A",
"C+	c #7D192A",
"D+	c #7E192A",
"E+	c #871C2B",
"F+	c #843029",
"G+	c #985623",
"H+	c #985522",
"I+	c #8D4526",
"J+	c #82182B",
"K+	c #631C28",
"L+	c #841E2A",
"M+	c #5B1C27",
"N+	c #491922",
"O+	c #9B1E27",
"P+	c #A3202D",
"Q+	c #871E2A",
"R+	c #5F2B1D",
"S+	c #7F2128",
"T+	c #5C2B1D",
"U+	c #832029",
"V+	c #841D2A",
"W+	c #50171C",
"X+	c #811C2A",
"Y+	c #801C2A",
"Z+	c #6F2222",
"`+	c #4C2717",
" @	c #752124",
".@	c #671D28",
"+@	c #46161C",
"@@	c #541B25",
"#@	c #1D1415",
"$@	c #921D25",
"%@	c #A4212D",
"&@	c #861D2A",
"*@	c #69331C",
"=@	c #DFAE21",
"-@	c #7B5D1A",
";@	c #E2B328",
">@	c #64451A",
",@	c #7C2227",
"'@	c #5E3C1A",
")@	c #7D2727",
"!@	c #663B1C",
"~@	c #7B2A26",
"{@	c #5C4118",
"]@	c #4D3517",
"^@	c #5E1520",
"/@	c #702C23",
"(@	c #BE7D16",
"_@	c #F9A015",
":@	c #A46615",
"<@	c #6F1125",
"[@	c #2C1519",
"}@	c #281415",
"|@	c #801D28",
"1@	c #5E1C27",
"2@	c #211416",
"3@	c #441517",
"4@	c #991E27",
"5@	c #8F1F2B",
"6@	c #4F151C",
"7@	c #DF8E14",
"8@	c #FDC022",
"9@	c #97791E",
"0@	c #EDD94F",
"a@	c #826D22",
"b@	c #5F4A18",
"c@	c #E6B92C",
"d@	c #7B611C",
"e@	c #624917",
"f@	c #8F711E",
"g@	c #FDCC30",
"h@	c #CDA527",
"i@	c #352513",
"j@	c #C19A25",
"k@	c #FFCB2B",
"l@	c #FFB51C",
"m@	c #A96912",
"n@	c #6C1024",
"o@	c #651C28",
"p@	c #261517",
"q@	c #391517",
"r@	c #541619",
"s@	c #971E27",
"t@	c #9F202D",
"u@	c #691D29",
"v@	c #501B23",
"w@	c #7B1D28",
"x@	c #4B141C",
"y@	c #E39114",
"z@	c #FFC222",
"A@	c #FEC927",
"B@	c #FFE04A",
"C@	c #F8CD37",
"D@	c #A28626",
"E@	c #EFDB50",
"F@	c #A58D2C",
"G@	c #FEE551",
"H@	c #E8BD30",
"I@	c #B19A32",
"J@	c #FFED58",
"K@	c #DBCA4B",
"L@	c #C1A22F",
"M@	c #FFDF48",
"N@	c #FFD843",
"O@	c #F2A818",
"P@	c #9C5E17",
"Q@	c #751426",
"R@	c #4F1A24",
"S@	c #421517",
"T@	c #B9232E",
"U@	c #5F171B",
"V@	c #9E202D",
"W@	c #621B24",
"X@	c #49191E",
"Y@	c #3E1617",
"Z@	c #771B25",
"`@	c #661822",
" #	c #C27916",
".#	c #FAB51E",
"+#	c #FEC624",
"@#	c #DFB024",
"##	c #FCDB46",
"$#	c #FFCF30",
"%#	c #FFE753",
"&#	c #FFE955",
"*#	c #FFDC45",
"=#	c #FFEC58",
"-#	c #FFE853",
";#	c #FFE953",
">#	c #EEBB36",
",#	c #9B5916",
"'#	c #731126",
")#	c #641C28",
"!#	c #291518",
"~#	c #411517",
"{#	c #A11F29",
"]#	c #981F2C",
"^#	c #0E1312",
"/#	c #841B22",
"(#	c #A8202A",
"_#	c #55181C",
":#	c #401719",
"<#	c #3E1616",
"[#	c #4F1A22",
"}#	c #671223",
"|#	c #B97316",
"1#	c #F5AF1D",
"2#	c #715315",
"3#	c #F2BD22",
"4#	c #D2A724",
"5#	c #FEDB45",
"6#	c #FFDE47",
"7#	c #F7D341",
"8#	c #D7AE2B",
"9#	c #FFDF47",
"0#	c #EDC83A",
"a#	c #E1BB33",
"b#	c #EBC538",
"c#	c #986D1C",
"d#	c #740627",
"e#	c #481922",
"f#	c #271517",
"g#	c #451517",
"h#	c #B8232E",
"i#	c #511B25",
"j#	c #37171C",
"k#	c #6F1920",
"l#	c #931E28",
"m#	c #55181B",
"n#	c #4E1A22",
"o#	c #581C28",
"p#	c #451921",
"q#	c #661C26",
"r#	c #6D1524",
"s#	c #A96716",
"t#	c #7A3A20",
"u#	c #AA831D",
"v#	c #743B21",
"w#	c #BE931B",
"x#	c #F5BF22",
"y#	c #AA801C",
"z#	c #7B4620",
"A#	c #B58D1A",
"B#	c #9B701D",
"C#	c #8B5D1F",
"D#	c #966B1D",
"E#	c #760127",
"F#	c #8B1F2B",
"G#	c #7C1D2A",
"H#	c #611C28",
"I#	c #2A1518",
"J#	c #4A1618",
"K#	c #521B25",
"L#	c #41161A",
"M#	c #711B24",
"N#	c #761D2A",
"O#	c #47181D",
"P#	c #4F1A21",
"Q#	c #34161B",
"R#	c #631B26",
"S#	c #731326",
"T#	c #851C2A",
"U#	c #710B25",
"V#	c #851B2A",
"W#	c #752F23",
"X#	c #98721C",
"Y#	c #731525",
"Z#	c #831A2A",
"`#	c #6B0424",
" $	c #781227",
".$	c #7E1628",
"+$	c #7A1327",
"@$	c #7B1D2A",
"#$	c #5F1C27",
"$$	c #4B1A23",
"%$	c #281517",
"&$	c #5F1820",
"*$	c #751D29",
"=$	c #521B24",
"-$	c #3F1617",
";$	c #46181E",
">$	c #2B1518",
",$	c #791427",
"'$	c #791D2A",
")$	c #5D1C27",
"!$	c #4B1618",
"~$	c #44171A",
"{$	c #461921",
"]$	c #0B1312",
"^$	c #36161B",
"/$	c #501B25",
"($	c #601C28",
"_$	c #B0212B",
":$	c #BB232F",
"<$	c #811D28",
"[$	c #34140E",
"}$	c #31130C",
"|$	c #3D1616",
"1$	c #461920",
"2$	c #251417",
"3$	c #41171D",
"4$	c #511A23",
"5$	c #631D28",
"6$	c #341619",
"7$	c #53171A",
"8$	c #891E2A",
"9$	c #7F1D29",
"0$	c #581B25",
"a$	c #551B26",
"b$	c #1A1314",
"c$	c #861E2A",
"d$	c #911F2C",
"e$	c #901F2B",
"f$	c #911F2B",
"g$	c #A0212C",
"h$	c #AA212E",
"i$	c #B5222F",
"j$	c #771D28",
"k$	c #291517",
"l$	c #251415",
"m$	c #43161A",
"n$	c #781D28",
"o$	c #441920",
"p$	c #371518",
"q$	c #641922",
"r$	c #811E2A",
"s$	c #A2202D",
"t$	c #4D1A23",
"u$	c #4D1A24",
"v$	c #681C26",
"w$	c #AD212E",
"x$	c #3A1518",
"y$	c #46161A",
"z$	c #67191F",
"A$	c #851E2A",
"B$	c #BC232F",
"C$	c #A5212D",
"D$	c #6C1D28",
"E$	c #0F1313",
"F$	c #7E1B23",
"G$	c #9B202C",
"H$	c #48171E",
"I$	c #421619",
"J$	c #721B26",
"K$	c #451920",
"L$	c #071212",
"M$	c #63181C",
"N$	c #A31F28",
"O$	c #A3212D",
"P$	c #A6212D",
"Q$	c #571B26",
"R$	c #56171B",
"S$	c #AC222E",
"T$	c #9F202C",
"U$	c #601C27",
"V$	c #3E161A",
"W$	c #33161A",
"X$	c #7B1A20",
"Y$	c #C92531",
"Z$	c #9D212C",
"`$	c #98202C",
" %	c #C62430",
".%	c #9C202C",
"+%	c #A1202D",
"@%	c #721D28",
"#%	c #43181F",
"$%	c #67181D",
"%%	c #BD232F",
"&%	c #8A1E28",
"*%	c #891D26",
"=%	c #94202B",
"-%	c #4E1C27",
";%	c #A9212D",
">%	c #C72430",
",%	c #621C28",
"'%	c #431820",
")%	c #1B1415",
"!%	c #271518",
"~%	c #511922",
"{%	c #0A1312",
"]%	c #63181E",
"^%	c #A0202C",
"/%	c #651D28",
"(%	c #561B25",
"_%	c #6A1A24",
":%	c #95202B",
"<%	c #521B26",
"[%	c #772F34",
"}%	c #80252A",
"|%	c #711C26",
"1%	c #251517",
"2%	c #431920",
"3%	c #591C28",
"4%	c #3B1317",
"5%	c #5F272B",
"6%	c #5E2D2F",
"7%	c #731A23",
"8%	c #93202B",
"9%	c #4A181F",
"0%	c #6B3032",
"a%	c #5A2327",
"b%	c #38151A",
"c%	c #702428",
"d%	c #6B3033",
"e%	c #3B1418",
"f%	c #481417",
"g%	c #722B2E",
"h%	c #712B2E",
"i%	c #771B24",
"j%	c #691C28",
"k%	c #51252C",
"l%	c #281B1D",
"m%	c #6D1B25",
"n%	c #7E1D2A",
"o%	c #171B1A",
"p%	c #2C1214",
"q%	c #592D2F",
"r%	c #4B292A",
"s%	c #191213",
"t%	c #181C1C",
"u%	c #141717",
"v%	c #571B25",
"w%	c #551B25",
"x%	c #191C1C",
"y%	c #0F1212",
"z%	c #171E1E",
"A%	c #141A1A",
"B%	c #2F1416",
"C%	c #801D29",
"D%	c #801E2A",
"E%	c #1C1415",
"F%	c #39171C",
"G%	c #101413",
"H%	c #1A1B1B",
"I%	c #161717",
"J%	c #37191B",
"K%	c #B4222D",
"L%	c #811D29",
"M%	c #2F1517",
"N%	c #9D202D",
"O%	c #7F1D2A",
"P%	c #131414",
"Q%	c #1B1516",
"R%	c #251F1F",
"S%	c #272828",
"T%	c #3A3434",
"U%	c #81222D",
"V%	c #571B24",
"W%	c #641E25",
"X%	c #AD242F",
"Y%	c #9A202C",
"Z%	c #48161C",
"`%	c #501A23",
" &	c #241B1C",
".&	c #181818",
"+&	c #201D1D",
"@&	c #261416",
"#&	c #171314",
"$&	c #2E3030",
"%&	c #702930",
"&&	c #2E1519",
"*&	c #4A1A22",
"=&	c #501B24",
"-&	c #481921",
";&	c #0F1312",
">&	c #232424",
",&	c #3D171D",
"'&	c #31161A",
")&	c #491A22",
"!&	c #7D1E2A",
"~&	c #111212",
"{&	c #0D1312",
"]&	c #0C1312",
"^&	c #38171C",
"/&	c #101312",
"(&	c #3F181E",
"                                                                                                                                ",
"                                                                                                                                ",
"                                                                                                                                ",
"                                                                                                                                ",
"                    . . .                                           . . .                                                       ",
"                  + + . .                                           . . + .                                                     ",
"                @ # $ +                                             . . % & .                                                   ",
"              + # * = +                                               . - ; > .                                                 ",
"            . . , * @                                                 . ' ) ! . .                                               ",
"            + # ~ * @                                                 . ' { ] > .                                               ",
"          . + ^ / ,                                                     ' { ( > . .                                             ",
"          . + ^ / ,                                                     ' { ( > . .                                             ",
"        . . + ^ / , _                                                   ' { ( > . . .                                           ",
"      . . . + ^ / , _                                                 . . { ( > . . .                                           ",
"      . . . + ^ / { : +                                               . < ] ( > . . . .                                         ",
"      . . . . > [ / < @                                             . + ) ~ ^ } . . . .                                         ",
"      . . . . @ | / 1 2 +                                         . + 3 ( ( 4 . . . . .                                         ",
"      . . . . . } 3 / | .                                         . 5 6 ~ 7 ' . . . . .                                         ",
"        . . . . @ | ( ( ^ 5                                     . 8 ; ~ ] - . . . . .                                           ",
"        . . . . . + % / ~ 9 }                                 + = 0 ~ ~ a . . . . . .                                           ",
"        . . . . . + ^ ] ~ ~ < 8 +     b c c c d d d e f   + + & g ~ ~ { - . . . . . .                                           ",
"          . . . . . _ h / ~ ~ * $ 8 i j k l m n o n p q r s $ g ~ ~ / : + . . . . .                                             ",
"          . . . . . + t u ~ ~ ~ ~ - v w x y z A A B C n D E / ~ ~ / 0 & . . . . . .                                             ",
"            . . . . . @ : { ~ ~ % F G H I J J K L M N l O P Q ~ / [ > + . . . . .                                               ",
"            . . . . . . + R { ~ S T x U V W W W X Y Z `  ...+./ h @.+ . . . . .                                                 ",
"              . . . . . . + - a #.$.%.&.V V V V V W X *.z =.-.;.= + . . . . .                                                   ",
"                . . . . . . . i >.y ,.'.V V V V V V V ).y !.~.{.{.. . . ].^.                                                    ",
"                    . . . . /.(._.:.<.V V V V V V '.[.}.z z |.1.2.3.4.4.5.6.                                                    ",
"                      . 7.8.9.0.a.b.c.d.V '.e.V '.U f.g.h.h.i.j.k.l.m.m.n l.n.                                                  ",
"                        o.p.q.r.s.t.u.v.w.e.x.X K y.z.A.B.C.D.E.N F.n n n n l.G.                                                ",
"                      H.I.}.q.J.K.L.M.N.%.O.P.Q.R.S.T.U.V.W.X.Y.}.B o n n Z.p `.                                                ",
"                      H.I.H q. +.+++@+#+$+x %+&+*+=+-+;+>+,+'+Y.H )+!+n p M ~+{+]+                                              ",
"                      H.I.H ^+/+(+_+:+<+[+x }+|+1+2+3+4+5+6+7+8+9+H 0+o n a+b+c+m.d+                                            ",
"                      e+f+H g+h+i+j+k+l+m+y n+o+p+q+r+s+t+u+v+H 9+H m o n n 0+b+w+x+].                                          ",
"                      y+z+y 9+A+B+C+C+D+y 9+9+E+F+G+H+G+I+J+9+9+9+9+A+K+n n {+L+b+M+N+].                                        ",
"                    7.O+P+y 9+Q+R+S+T+U+V+W+Q+x y X+Y+Y+V+9+Z+`+ @9+9+.@o n l.+@V+g+@@#@                                        ",
"                    $@%@9+9+&@*@=@-@;@>@,@'@)@!@V+~@{@]@^@/@(@_@:@<@H .@o o [@}@|@z 1@O 2@                                      ",
"                  3@4@5@~+y 6@7@8@9@0@a@b@c@d@c@e@f@g@h@i@j@k@l@m@n@b+o@n o p@  q@c.M {+O p@                                    ",
"                r@s@t@u@v@w@x@y@z@A@B@C@D@E@F@G@H@I@J@K@L@M@N@O@P@Q@B o n R@p@  S@T@b+{+n 5.7.                                  ",
"              U@s@V@W@X@Y@Z@`@ #.#+#@###$#%#++&#M@*#=#-#4+;#>#,#'#A+)#n n !#    ~#{#]#{+n 5.^#                                  ",
"              /#(#_#:#<#[# .b+}#|#1#2#3#4#5#6#7#8#9#9#0#a#b#c#d#}.B o n e#f#      g#h#A p i#j#                                  ",
"              k#l#m#n#o#p p#q#b+r#s#t#u#v#w#x#y#z#A#A#B#C#D#E#F#G#H#n n I#        J#T@z p n K#`.                                ",
"              L#M#N#o O#P#Q#[@R#z S#T#U#V#W#X#Y#Z#`#`# $.$+$}.@$#$o n n $$%$      J#T@L+p n p 1.v                               ",
"                &$*$o =$-$;$>$5.)#m z 9+9+n+,$9+9+H H 9+9+H '$)$o n n n n I#      !$T@L+p n n#~${$]$                            ",
"                &$*$o n T l.i#^$/$n ($o@b+y y 9+9+9+y y )+H#F.n p {+{+p n I#    S@_$:$<$[$}$|$1$2$                              ",
"                &$*$o n k.F.3$4$M+p n n )$)$o@b+b+_.1@($M+n 1@#$c+b+9+A 5$6$      7$8$9$0$@@a$N+b$                              ",
"                &$*$k.Z.c$d$e$f$y .@!+p o T n k.k.M+G c$.@5$g$h$}.c.i$X &.j$k$      l$m$n$1@n n o$]$                            ",
"              p$q$G r$Y V '.V V s$}.b+)$1.f#t$O u$v$Z W [.w$V W s$U V V :$f$x$          y$g+o p p#]$                            ",
"              z$F#A$w.B$e.V d.i$X C$H D$a$d+7.E$l$F$W e.:$W V B$G$[.W V ]#x H$          I$J$o@n K$L$                            ",
"            M$N$Z O$:$]#U W G$)+P$X P.x Q$i     R$K W S$G$W W T$G J W :.c$z U$2@          V$!.m t$W$                            ",
"            X$Y$Z$`$Z c+S$ %.%)#a++%c.y @%#%    $%W %%&%*% % %=%-%;%>%G$,%a+k.'%)%        !%~%l n '%{%                          ",
"            ]%:.^%`$%%L+F#B$V@/%o m b+9+b+(%i   $% %i$_%/#>%>%:%<%[%}%|%c+1@~+M+{$b$        1%2%3%'%{%                          ",
"            4%5%6%7%w.8%9%0%a%b%i#{+` 9+z (%i     c%d%e%f%g%h%i%j%k%l%m% .@$x n%M+N+d+        2$'%o$^#. . . . . . . . .         ",
"                o%p%q%r%s%t%u%/.%$v%).5@z w%i       x%7.y%z%A%B%n#c+C%A$o@A+9+9+D%M+5.E%].      F%o$G%' ' ' ' ' ' ' ' ' . .     ",
"                  /.H%I%.   .     J%K%5@L%M%          .     . ^#p#P$N%j%m.O%x 9+9+r$)$T 5.E%. P%Q%R%S%$ $ $ $ $ $ $ 2 7 5 . .   ",
"                      .         4 T%U%9$V%#@                  e+W%X%Y%Z%)%`%F.D%z 9+M !+n 5.G. &7 % ] ( ( ( ( ( ( ( | .&. .     ",
"                              ' [ +&N+@&#&                    - $&%&R#&&  d+*&=&F.g+r$G#o@H#n -&;&> 3 ( ~ ] ( ] u u # } .       ",
"                                + . 7.                        < >&,&'&      7.d+-&)&$$!+!&*$n t$!#~&- h { * ; 9 2 $ 8 .         ",
"                                                                + ;&            {&]&2@o$e#n p T ^&/&@.! ! ! ! 8 - ! } .         ",
"                                                                                        p@(&(&Q#;&. . + + + + . . + .           ",
"                                                                                            ]&7.. . . . . . . . .               ",
"                                                                                                . . . . . . .                   ",
"                                                                                                                                ",
"                                                                                                                                "};
