/* XPM */
static char * enemy1_xpm[] = {
"64 64 299 2",
"  	c None",
". 	c #612128",
"+ 	c #602128",
"@ 	c #5F2027",
"# 	c #602127",
"$ 	c #5B1E25",
"% 	c #45161B",
"& 	c #3B1217",
"* 	c #3C1317",
"= 	c #3B1317",
"- 	c #3E1418",
"; 	c #541C22",
"> 	c #602027",
", 	c #5E2027",
"' 	c #3D1318",
") 	c #381116",
"! 	c #391216",
"~ 	c #351014",
"{ 	c #341014",
"] 	c #371115",
"^ 	c #5D1F26",
"/ 	c #5C1F26",
"( 	c #531C22",
"_ 	c #3C1318",
": 	c #361115",
"< 	c #3A1217",
"[ 	c #351015",
"} 	c #581E24",
"| 	c #622129",
"1 	c #5D2026",
"2 	c #531B21",
"3 	c #331014",
"4 	c #591E24",
"5 	c #44161B",
"6 	c #370F14",
"7 	c #43131A",
"8 	c #581B23",
"9 	c #5E1E26",
"0 	c #541B22",
"a 	c #48171C",
"b 	c #49181D",
"c 	c #381115",
"d 	c #401419",
"e 	c #42151A",
"f 	c #581D24",
"g 	c #561D23",
"h 	c #4E1A1F",
"i 	c #4B191E",
"j 	c #551A22",
"k 	c #562024",
"l 	c #5A3E35",
"m 	c #5B4A3C",
"n 	c #5B4A3D",
"o 	c #694D41",
"p 	c #653D37",
"q 	c #531B22",
"r 	c #49161D",
"s 	c #45141A",
"t 	c #47141C",
"u 	c #4E1B21",
"v 	c #501D23",
"w 	c #521D23",
"x 	c #551D23",
"y 	c #4C191F",
"z 	c #310A11",
"A 	c #4B352C",
"B 	c #665343",
"C 	c #82705A",
"D 	c #A7735E",
"E 	c #C56455",
"F 	c #C76354",
"G 	c #A45C4C",
"H 	c #654A3D",
"I 	c #542A28",
"J 	c #633D36",
"K 	c #844A3F",
"L 	c #A7262A",
"M 	c #B01022",
"N 	c #A11320",
"O 	c #5A1017",
"P 	c #270F12",
"Q 	c #330F13",
"R 	c #A9967F",
"S 	c #A7967F",
"T 	c #D07768",
"U 	c #FE1D33",
"V 	c #FF0028",
"W 	c #E1685D",
"X 	c #A48C76",
"Y 	c #7A6A57",
"Z 	c #8A7D68",
"` 	c #C08673",
" .	c #F73F42",
"..	c #FF0029",
"+.	c #FF032D",
"@.	c #BEAC95",
"#.	c #BDAC95",
"$.	c #C99F8A",
"%.	c #D98878",
"&.	c #DB8777",
"*.	c #CE9985",
"=.	c #BBA790",
"-.	c #B09E87",
";.	c #B4A38C",
">.	c #C3A48E",
",.	c #D78E7D",
"'.	c #DC8778",
").	c #DB8878",
"!.	c #BDAB94",
"~.	c #D1C0A8",
"{.	c #E2D2BA",
"].	c #CABAA3",
"^.	c #D2C2AA",
"/.	c #E2D0B9",
"(.	c #C9B7A0",
"_.	c #D6C4AD",
":.	c #E1CFB8",
"<.	c #C5B59D",
"[.	c #BBAB94",
"}.	c #BCAC95",
"|.	c #B7A68F",
"1.	c #877867",
"2.	c #B5A694",
"3.	c #E9D8C2",
"4.	c #A29382",
"5.	c #BDAD9B",
"6.	c #E7D6C0",
"7.	c #9A8B7B",
"8.	c #C4B5A1",
"9.	c #E4D3BD",
"0.	c #908172",
"a.	c #9C8B78",
"b.	c #B6A48E",
"c.	c #776759",
"d.	c #4B3B35",
"e.	c #887A6D",
"f.	c #D3C3AF",
"g.	c #C4B5A2",
"h.	c #75675C",
"i.	c #42312D",
"j.	c #5F5149",
"k.	c #6F6157",
"l.	c #4A3933",
"m.	c #948472",
"n.	c #BBA992",
"o.	c #BCAA93",
"p.	c #B8A690",
"q.	c #938271",
"r.	c #786A5E",
"s.	c #DBCAB5",
"t.	c #E0CFB7",
"u.	c #AB9A85",
"v.	c #6C5D50",
"w.	c #B5A695",
"x.	c #D4C4B0",
"y.	c #7B6D61",
"z.	c #958472",
"A.	c #A29079",
"B.	c #A08E77",
"C.	c #BAA891",
"D.	c #BBA993",
"E.	c #BAA892",
"F.	c #BFAD96",
"G.	c #BCAA94",
"H.	c #B9A790",
"I.	c #B4A28B",
"J.	c #9D8A73",
"K.	c #9F8C75",
"L.	c #B2A089",
"M.	c #98866E",
"N.	c #AD9B84",
"O.	c #B8A68F",
"P.	c #95826B",
"Q.	c #96836C",
"R.	c #A8967F",
"S.	c #97846D",
"T.	c #A5937C",
"U.	c #B6A48D",
"V.	c #8E7B63",
"W.	c #A7957E",
"X.	c #A6947D",
"Y.	c #95836B",
"Z.	c #AE9B85",
"`.	c #948169",
" +	c #8B7860",
".+	c #8E7C63",
"++	c #8F7C64",
"@+	c #A99780",
"#+	c #AC9A83",
"$+	c #917A66",
"%+	c #806653",
"&+	c #907D65",
"*+	c #AE9C85",
"=+	c #B7A58E",
"-+	c #9F8D76",
";+	c #6F463E",
">+	c #7C5F4F",
",+	c #8B7660",
"'+	c #9C8A72",
")+	c #A18F77",
"!+	c #907D66",
"~+	c #755345",
"{+	c #602E2D",
"]+	c #6F5A4A",
"^+	c #A5937E",
"/+	c #A18F78",
"(+	c #95826A",
"_+	c #A7957D",
":+	c #531820",
"<+	c #632A2D",
"[+	c #714B41",
"}+	c #836A56",
"|+	c #88735D",
"1+	c #795A4B",
"2+	c #7C5E4E",
"3+	c #755748",
"4+	c #623B37",
"5+	c #A08B79",
"6+	c #B5A28B",
"7+	c #998772",
"8+	c #746252",
"9+	c #A79681",
"0+	c #AE9985",
"a+	c #907567",
"b+	c #3E1419",
"c+	c #4A171D",
"d+	c #5D3631",
"e+	c #5B3E34",
"f+	c #5F292B",
"g+	c #5B3630",
"h+	c #665041",
"i+	c #846D5A",
"j+	c #AB9882",
"k+	c #BEAC94",
"l+	c #BFAC95",
"m+	c #A18F7C",
"n+	c #533D36",
"o+	c #6F5048",
"p+	c #785049",
"q+	c #62242A",
"r+	c #3A1116",
"s+	c #340811",
"t+	c #472524",
"u+	c #8D7A6A",
"v+	c #9E8A77",
"w+	c #7E5D52",
"x+	c #A58F7C",
"y+	c #BDAB93",
"z+	c #B7A58F",
"A+	c #380009",
"B+	c #431219",
"C+	c #581D23",
"D+	c #693E3B",
"E+	c #9E8876",
"F+	c #B6A38D",
"G+	c #B9A690",
"H+	c #9A8870",
"I+	c #96836B",
"J+	c #94826A",
"K+	c #97846C",
"L+	c #A5927B",
"M+	c #917E66",
"N+	c #B19E88",
"O+	c #9A8770",
"P+	c #97856D",
"Q+	c #8E7C64",
"R+	c #AF9D86",
"S+	c #99876F",
"T+	c #8D7A62",
"U+	c #8E7B62",
"V+	c #B3A18A",
"W+	c #A39079",
"X+	c #A3917A",
"Y+	c #9B8272",
"Z+	c #B09B87",
"`+	c #8D7B62",
" @	c #A5937B",
".@	c #430D17",
"+@	c #75594F",
"@@	c #877664",
"#@	c #8C7861",
"$@	c #7F6452",
"%@	c #7A5C4C",
"&@	c #5E4A3B",
"*@	c #806F5D",
"=@	c #B3A18B",
"-@	c #A2917D",
";@	c #8D7C6A",
">@	c #521B21",
",@	c #4D121C",
"'@	c #562A28",
")@	c #5C4438",
"!@	c #5E3D35",
"~@	c #520D1C",
"{@	c #5D3634",
"]@	c #725D51",
"^@	c #654740",
"/@	c #552927",
"(@	c #5B4337",
"                                                                                                                                ",
"                                                                                                                                ",
"                                                                                                                                ",
"                                                                                                                                ",
"                                                                                                                                ",
"                                                                                                                                ",
"                                                                                                                                ",
"                                                                                                                                ",
"                                                                                                                                ",
"                                                                                                                                ",
"                                                                                                                                ",
"                                                                                                                                ",
"                                                      . . . . . . . . . . . . .                                                 ",
"                                            . . . . . . . . . . . . . . . . . . . . . . .                                       ",
"                                      . . . . . . . . . . . . . . . . . . . . . . . . . . .                                     ",
"                                    . . . . . . . . . . . . . . . . . + + + + + + + . . . . . .                                 ",
"                                . . . . . . . . . . . + @ @ @ @ @ # $ % & * * * = - ; > @ + . . .                               ",
"                                . . . . . . . . + , , ; ' ) ! ! ! ! ) ~ { { { { { { ] ) ' ; , , + .                             ",
"                                . . . . . + ^ / ( _ * * ~ { ) ' - ! : * ! { { { { { < & ~ [ ~ ' } |                             ",
"                                    . . 1 2 * 3 { ) ; 4 5 6 7 8 9 0 a ; b c d e e 5 f g ! 3 3 < g                               ",
"                                      + h { { { 3 ] i j k l m n o p q r s t u v w x g y ) 3 { {                                 ",
"                                                  { z A B C D E F G H I J K L M N O P Q {                                       ",
"                                                        R S T U V W X Y Z `  ...+.                                              ",
"                                                        @.#.$.%.&.*.=.-.;.>.,.'.).                                              ",
"                                                      !.!.!.~.{.].^./.(._.:.<.[.}.                                              ",
"                                                !.!.!.@.|.1.2.3.4.5.6.7.8.9.0.a.!.!.                                            ",
"                                            !.!.!.!.!.@.b.c.d.e.f.g.h.i.j.k.l.m.!.!.                                            ",
"                                            !.!.!.!.n.n.o.p.q.r.s.t.u.v.w.x.y.z.!.!.!.!.                                        ",
"                                        !.!.!.!.!.n.A.B.C.@.D.E.F.F.G.C.!.F.E.n.o.H.n.!.                                        ",
"                                      !.!.!.!.!.n.I.J.K.C.@.!.!.!.!.!.!.!.!.!.@.L.M.N.@.!.                                      ",
"                                      L.O.!.!.@.L.P.Q.R.n.!.!.!.!.!.!.!.!.!.!.@.L.S.T.U.o.!.                                    ",
"                                      V.W.!.!.U.X.Y.Z.@.!.!.!.!.!.!.!.!.!.!.!.@.L.`. +K.C.@.!.                                  ",
"                                    .+++@+C.#+$+%+&+*+!.!.!.!.!.!.!.!.!.!.!.!.!.=+W.Q.-+C.@.!.                                  ",
"                                  ;+>+,+'+)+!+~+{+]+^+@.!.!.!.!.!.!.!.!.!.!.!.!.@.n./+(+_+=+@.F.                                ",
"                                b :+<+[+}+|+1+2+3+4+5+@.!.!.!.!.!.!.!.!.!.!.!.!.!.o.6+7+8+9+0+a+                                ",
"                                  b+c+$ d+e+f+g+h+i+j+k+!.!.!.!.!.!.!.!.!.!.!.!.!.!.l+m+n+o+p+q+                                ",
"                                      d r+s+t+u+v+w+x+@.!.!.!.!.!.!.!.!.!.!.!.!.!.o.y+z+  A+B+                                  ",
"                                      / C+  D+E+n.F+G+n.n.o.!.!.!.!.!.!.!.!.!.!.L.H+(+I+                                        ",
"                                            O.n.!.n.X.J+K+*+C.C.o.!.!.!.n.C.O.L+M+++                                            ",
"                                            !.!.!.!.!.N+O+P+(+Q.*+O.=+U.L+M+&+++V.                                              ",
"                                            !.!.!.!.!.!.o.=+X.!+V.++++Q+V.V.V.V.V.V.                                            ",
"                                            !.!.!.!.@.C.R+S+T+V.V.V.V.V.V.V.V.U+T+T+                                            ",
"                                            @.k+!.!.V+W+&+T+V.V.V.V.V.V.V.V.V.O+X+X+                                            ",
"                                            Y+Z+H.@+P+`+V.V.V.V.V.V.V.V.V.(+ @U.F.F.                                            ",
"                                          .@^ +@@@#@$@%@                &@*@=@-@;@/+                                            ",
"                                        g >@b ,@'@)@!@                  ~@{@]@^@/@(@                                            ",
"                                                                                                                                ",
"                                                                                                                                ",
"                                                                                                                                ",
"                                                                                                                                ",
"                                                                                                                                ",
"                                                                                                                                ",
"                                                                                                                                ",
"                                                                                                                                ",
"                                                                                                                                ",
"                                                                                                                                ",
"                                                                                                                                ",
"                                                                                                                                ",
"                                                                                                                                ",
"                                                                                                                                ",
"                                                                                                                                ",
"                                                                                                                                ",
"                                                                                                                                ",
"                                                                                                                                "};
