/* XPM */
static char * enemy2_xpm[] = {
"64 64 472 2",
"  	c None",
". 	c #612128",
"+ 	c #602128",
"@ 	c #5F2027",
"# 	c #5E2027",
"$ 	c #5A1E25",
"% 	c #4C191E",
"& 	c #43151A",
"* 	c #42151A",
"= 	c #44161B",
"- 	c #511B21",
"; 	c #5E2026",
"> 	c #622128",
", 	c #561D23",
"' 	c #4E1A1F",
") 	c #4D191F",
"! 	c #48171D",
"~ 	c #3B1217",
"{ 	c #320F13",
"] 	c #330F13",
"^ 	c #341014",
"/ 	c #3F1419",
"( 	c #4A181E",
"_ 	c #4F1A20",
": 	c #571D24",
"< 	c #5C1F26",
"[ 	c #571D23",
"} 	c #521B21",
"| 	c #351015",
"1 	c #331013",
"2 	c #331014",
"3 	c #361115",
"4 	c #46171C",
"5 	c #541C22",
"6 	c #5B1F25",
"7 	c #5D2026",
"8 	c #3C1317",
"9 	c #3D1318",
"0 	c #391216",
"a 	c #3B1317",
"b 	c #3A1216",
"c 	c #371115",
"d 	c #3A1217",
"e 	c #381216",
"f 	c #351014",
"g 	c #381116",
"h 	c #551C22",
"i 	c #47171C",
"j 	c #591E24",
"k 	c #5B1E25",
"l 	c #531C22",
"m 	c #41151A",
"n 	c #46161C",
"o 	c #5A1F25",
"p 	c #4F1920",
"q 	c #3F1017",
"r 	c #370812",
"s 	c #410D17",
"t 	c #4E141D",
"u 	c #5A1A23",
"v 	c #5E1C25",
"w 	c #571C23",
"x 	c #3E1419",
"y 	c #531B22",
"z 	c #531B21",
"A 	c #541720",
"B 	c #552526",
"C 	c #5C3F35",
"D 	c #5F4C3E",
"E 	c #5D4E3F",
"F 	c #604F41",
"G 	c #6A5143",
"H 	c #6A493F",
"I 	c #5D302E",
"J 	c #51171F",
"K 	c #4B161D",
"L 	c #47161C",
"M 	c #47131B",
"N 	c #49151D",
"O 	c #4C1A21",
"P 	c #4D1C22",
"Q 	c #501C22",
"R 	c #350F14",
"S 	c #3A191A",
"T 	c #432823",
"U 	c #594438",
"V 	c #796652",
"W 	c #90765F",
"X 	c #9D745E",
"Y 	c #A5705C",
"Z 	c #A6705C",
"` 	c #976654",
" .	c #6F4B3E",
"..	c #50302A",
"+.	c #562326",
"@.	c #5E282A",
"#.	c #663532",
"$.	c #6D322F",
"%.	c #751F22",
"&.	c #78111B",
"*.	c #77121B",
"=.	c #671219",
"-.	c #481116",
";.	c #341216",
">.	c #816F5A",
",.	c #88765F",
"'.	c #8A7B63",
").	c #A7745F",
"!.	c #D7574D",
"~.	c #F1393D",
"{.	c #F4353B",
"].	c #E04B46",
"^.	c #AE6856",
"/.	c #7A6653",
"(.	c #584338",
"_.	c #5B463A",
":.	c #7F6855",
"<.	c #B16454",
"[.	c #DE3B3C",
"}.	c #EF132D",
"|.	c #ED152D",
"1.	c #E4162C",
"2.	c #B09E86",
"3.	c #AF9D86",
"4.	c #AD9D86",
"5.	c #C08F7B",
"6.	c #E95F58",
"7.	c #FF0C2E",
"8.	c #FF0027",
"9.	c #F24F4D",
"0.	c #CB8775",
"a.	c #A3907A",
"b.	c #867762",
"c.	c #877864",
"d.	c #A5917B",
"e.	c #CD8574",
"f.	c #F44C4B",
"g.	c #FF002C",
"h.	c #FF072D",
"i.	c #FF0B2E",
"j.	c #BEAC95",
"k.	c #BDAC95",
"l.	c #C5A38E",
"m.	c #D98979",
"n.	c #E57368",
"o.	c #E77167",
"p.	c #DE8374",
"q.	c #CA9D89",
"r.	c #B7A48D",
"s.	c #AA9982",
"t.	c #AB9A83",
"u.	c #B7A58E",
"v.	c #CB9C88",
"w.	c #DF8173",
"x.	c #E77368",
"y.	c #E77469",
"z.	c #BDAB94",
"A.	c #C0AE97",
"B.	c #C8B49E",
"C.	c #CAB69F",
"D.	c #C3AF98",
"E.	c #C2AE97",
"F.	c #C8B59E",
"G.	c #C8B69F",
"H.	c #C1AF98",
"I.	c #BEAA93",
"J.	c #BCAA93",
"K.	c #B9A790",
"L.	c #C5B49D",
"M.	c #E3D2BA",
"N.	c #E9D7C0",
"O.	c #CEBCA6",
"P.	c #C9B8A1",
"Q.	c #E5D4BD",
"R.	c #E7D5BE",
"S.	c #CBB9A3",
"T.	c #CCBBA4",
"U.	c #E8D6BF",
"V.	c #E5D3BC",
"W.	c #C7B59F",
"X.	c #B9A791",
"Y.	c #B4A28C",
"Z.	c #91816F",
"`.	c #9A8B7B",
" +	c #DBCAB5",
".+	c #E7D5BF",
"++	c #AD9E8C",
"@+	c #A29282",
"#+	c #DFCEB9",
"$+	c #E2D1BB",
"%+	c #A69786",
"&+	c #AA9B89",
"*+	c #DECDB8",
"=+	c #9E8F7E",
"-+	c #8F7F6E",
";+	c #B2A08B",
">+	c #BFAC95",
",+	c #AF9E89",
"'+	c #776759",
")+	c #5C4E46",
"!+	c #9D8F80",
"~+	c #BBAC9A",
"{+	c #B9AA98",
"]+	c #B7A897",
"^+	c #A59787",
"/+	c #695B52",
"(+	c #6D6056",
"_+	c #A69788",
":+	c #9F9182",
"<+	c #62544C",
"[+	c #746557",
"}+	c #AD9C87",
"|+	c #65554A",
"1+	c #3D2924",
"2+	c #807367",
"3+	c #D7C7B2",
"4+	c #E4D3BD",
"5+	c #A89988",
"6+	c #5F4F45",
"7+	c #3B2723",
"8+	c #554640",
"9+	c #7E7065",
"0+	c #776A5F",
"a+	c #4F4039",
"b+	c #766759",
"c+	c #AE9C87",
"d+	c #BBA992",
"e+	c #BAA891",
"f+	c #BAA892",
"g+	c #A99883",
"h+	c #796A5B",
"i+	c #887A6D",
"j+	c #D4C3AF",
"k+	c #E9D8C0",
"l+	c #CDBBA5",
"m+	c #A2917D",
"n+	c #716254",
"o+	c #938577",
"p+	c #D5C4AF",
"q+	c #CDBDA9",
"r+	c #85776A",
"s+	c #7D6E5F",
"t+	c #AF9D88",
"u+	c #AA9881",
"v+	c #A29078",
"w+	c #B09E87",
"x+	c #B1A08B",
"y+	c #C3B29C",
"z+	c #CBB9A2",
"A+	c #C3B19A",
"B+	c #B8A690",
"C+	c #B5A38E",
"D+	c #C5B39D",
"E+	c #AF9E88",
"F+	c #B9A891",
"G+	c #B2A089",
"H+	c #A5937C",
"I+	c #96846C",
"J+	c #95826A",
"K+	c #AB9982",
"L+	c #BEAC94",
"M+	c #B19F88",
"N+	c #B6A48D",
"O+	c #A6947D",
"P+	c #938068",
"Q+	c #96836B",
"R+	c #A29079",
"S+	c #AD9B84",
"T+	c #97856D",
"U+	c #9B8972",
"V+	c #94816A",
"W+	c #B5A38C",
"X+	c #97846D",
"Y+	c #A8967F",
"Z+	c #97846C",
"`+	c #8D7A62",
" @	c #938069",
".@	c #8E7B63",
"+@	c #8D7A61",
"@@	c #917E66",
"#@	c #A5927B",
"$@	c #9A8770",
"%@	c #95826B",
"&@	c #AE9B85",
"*@	c #8C7960",
"=@	c #907D66",
"-@	c #A4927B",
";@	c #8F7C64",
">@	c #B8A68F",
",@	c #B3A28A",
"'@	c #8D7562",
")@	c #7B5D4E",
"!@	c #816854",
"~@	c #948069",
"{@	c #96836C",
"]@	c #8B7860",
"^@	c #907E66",
"/@	c #755246",
"(@	c #7F6452",
"_@	c #866F5A",
":@	c #8F7B64",
"<@	c #9E8C75",
"[@	c #A99780",
"}@	c #A18F78",
"|@	c #8E7A63",
"1@	c #785849",
"2@	c #663432",
"3@	c #69473C",
"4@	c #806D5A",
"5@	c #A4927D",
"6@	c #B4A28B",
"7@	c #99866F",
"8@	c #928068",
"9@	c #9C8A73",
"0@	c #AC9A83",
"a@	c #5B1F26",
"b@	c #5D1F26",
"c@	c #642C2E",
"d@	c #745044",
"e@	c #846D58",
"f@	c #8C7861",
"g@	c #8D7962",
"h@	c #87705B",
"i@	c #7B5C4C",
"j@	c #6A4039",
"k@	c #522324",
"l@	c #5E443C",
"m@	c #978573",
"n@	c #88755E",
"o@	c #8B7962",
"p@	c #A3917B",
"q@	c #B9A690",
"r@	c #B39F8A",
"s@	c #4C181E",
"t@	c #5C2026",
"u@	c #632A2C",
"v@	c #6A3D37",
"w@	c #7B5E4D",
"x@	c #87715B",
"y@	c #7D6250",
"z@	c #6F483F",
"A@	c #795A4B",
"B@	c #816956",
"C@	c #715143",
"D@	c #714C44",
"E@	c #9C8574",
"F@	c #AE9C84",
"G@	c #74614E",
"H@	c #604D40",
"I@	c #8D7C6B",
"J@	c #9E8675",
"K@	c #7D5951",
"L@	c #531820",
"M@	c #5E2127",
"N@	c #603833",
"O@	c #60463A",
"P@	c #603B34",
"Q@	c #60292B",
"R@	c #5E3731",
"S@	c #624C3E",
"T@	c #715A49",
"U@	c #88705E",
"V@	c #A7937E",
"W@	c #AD9B85",
"X@	c #887766",
"Y@	c #543E36",
"Z@	c #644941",
"`@	c #826358",
" #	c #78514A",
".#	c #63282C",
"+#	c #45161B",
"@#	c #44131A",
"##	c #370A13",
"$#	c #3F0814",
"%#	c #542929",
"&#	c #6F564C",
"*#	c #806E5F",
"=#	c #7F6858",
"-#	c #866D5B",
";#	c #A5907C",
">#	c #BBA892",
",#	c #BBAA93",
"'#	c #A4937F",
")#	c #614D44",
"!#	c #3D0003",
"~#	c #4D0D1A",
"{#	c #55151F",
"]#	c #5F1F26",
"^#	c #320003",
"/#	c #523531",
"(#	c #917E6E",
"_#	c #B19E89",
":#	c #9F8776",
"<#	c #8A6D60",
"[#	c #A48D7B",
"}#	c #BFAD95",
"|#	c #5A1D24",
"1#	c #5D272A",
"2#	c #714A44",
"3#	c #998271",
"4#	c #B8A58F",
"5#	c #B7A48E",
"6#	c #BAA791",
"7#	c #AB9682",
"8#	c #B3A08A",
"9#	c #BCA993",
"0#	c #A3917A",
"a#	c #9D8A73",
"b#	c #9D8B74",
"c#	c #9F8C75",
"d#	c #927F67",
"e#	c #8C7961",
"f#	c #B3A18A",
"g#	c #A08E77",
"h#	c #9C8972",
"i#	c #AE9C85",
"j#	c #B19E88",
"k#	c #998770",
"l#	c #917E67",
"m#	c #9B8871",
"n#	c #BDAC94",
"o#	c #938169",
"p#	c #9F8D76",
"q#	c #9F8D75",
"r#	c #B5A28C",
"s#	c #907D65",
"t#	c #94826A",
"u#	c #805F55",
"v#	c #8D7A63",
"w#	c #391015",
"x#	c #4E0919",
"y#	c #60272B",
"z#	c #71524A",
"A#	c #806E5E",
"B#	c #897863",
"C#	c #8B7760",
"D#	c #806653",
"E#	c #78584A",
"F#	c #7E6351",
"G#	c #6A5747",
"H#	c #897866",
"I#	c #B09F89",
"J#	c #907F6E",
"K#	c #8E7D6B",
"L#	c #9E8C76",
"M#	c #4A181D",
"N#	c #4E1A20",
"O#	c #511A21",
"P#	c #4B0E1A",
"Q#	c #4C2021",
"R#	c #634A3D",
"S#	c #725C4B",
"T#	c #6D4E41",
"U#	c #61262A",
"V#	c #48151C",
"W#	c #6B5249",
"X#	c #8D7B6B",
"Y#	c #867263",
"Z#	c #5E403A",
"`#	c #593B32",
" $	c #6E5A48",
".$	c #75634F",
"+$	c #4F1E22",
"@$	c #3E1C1C",
"#$	c #602127",
"$$	c #572226",
"%$	c #482424",
"&$	c #4C2425",
"*$	c #5A2126",
"=$	c #541F23",
"-$	c #421D1D",
";$	c #381C1B",
"                                                                                                                                ",
"                                                                                                                                ",
"                                                                                                                                ",
"                                                                                                                                ",
"                                                                                                                                ",
"                                                                                                                                ",
"                                                                                                                                ",
"                                    . . . . . . . . . . . . . . . . . . . . . . . . . . . . . . . . .                           ",
"                            . . . . . . . . . . . . . . . . . . . . . . . . . . . . . . . . . . . . . . . .                     ",
"                          . . . . . . . . . . . . . . . . . . . . . . . . . . . . . . . . . . . . . . . . . .                   ",
"                        . . . . . . . . . . . . . . . . . . . . . . . . . . . . . . . . . . . . . . . . . . . .                 ",
"                        . . . . . . . . . . . . . . . . . . . . . . . . + @ # # # # # # # # @ . . . . . . . . .                 ",
"                        . . . . . . . . . . . . . . . . . . . . . . . . $ % & * & & & & * = - ; . . . . . . . .                 ",
"                        . . . . . . . . . . . . > > @ , ' ) ) ) ) ) ) ) ! ~ { { ] ] ] ] { ^ / ( ) _ : + > > . .                 ",
"                        . . . . . . . . . > + < : [ } = | 1 2 2 1 ] 2 2 2 2 2 ^ ^ ^ ^ ^ ^ ^ 2 2 { 3 4 5 [ : 6 +                 ",
"                            . . . . . @ 7 ; $ % 8 ~ 9 0 ^ ^ | 0 a a b 3 3 0 0 3 ^ ^ ^ ^ ^ ^ c d e f 3 c g g a                   ",
"                                  > @ 5 = / / 0 d ) h i c ] 9 _ j k l * m } - / ^ f f f ^ c i h ) b 1 ^ ^ ^                     ",
"                                      n | { 1 { a } @ o p q r s t u v w - ) = 0 x ) l y } l $ # } a ] ^ ^                       ",
"                                        ^ ^ ^ 2 0 ! z A B C D E F G H I J K L M N O P P Q 5 j 7 - a ] ^                         ",
"                                                ^ R S T U V W X Y Z `  ...+.@.#.$.%.&.*.=.-.;.                                  ",
"                                                      >.,.'.).!.~.{.].^./.(._.:.<.[.}.|.1.                                      ",
"                                                      2.3.4.5.6.7.8.9.0.a.b.c.d.e.f.g.h.i.                                      ",
"                                                      j.j.k.l.m.n.o.p.q.r.s.t.u.v.w.x.x.y.                                      ",
"                                                      z.z.z.A.B.C.D.E.F.G.H.H.G.F.E.I.I.I.                                      ",
"                                                  z.z.z.J.K.L.M.N.O.P.Q.R.S.T.U.V.W.X.J.z.                                      ",
"                                            z.z.z.z.z.j.Y.Z.`. +.+++@+#+$+%+&+Q.*+=+-+;+j.z.                                    ",
"                                          z.z.z.z.z.z.>+,+'+)+!+~+{+]+~+^+/+(+_+:+<+[+}+j.z.z.                                  ",
"                                      z.z.z.z.z.z.z.z.j.Y.Z.|+1+2+3+4+5+6+7+8+9+0+a+b+c+j.z.z.                                  ",
"                                    z.z.z.z.z.z.z.d+e+J.J.f+g+h+i+j+k+l+m+n+o+p+q+r+s+t+j.z.z.z.z.                              ",
"                                z.z.z.z.z.z.z.j.X.u+v+w+J.j.e+,+x+y+z+A+B+c+C+W.D+x+E+F+z.z.z.z.z.                              ",
"                                j.z.z.z.z.z.d+G+H+I+J+K+J.j.z.j.j.J.J.z.z.j.L+J.J.j.j.z.Y.K+w+d+j.z.                            ",
"                                M+N+J.z.z.j.e+O+P+Q+R+G+J.z.z.z.z.z.z.z.z.z.z.z.z.z.j.J.S+T+U+S+u.J.z.                          ",
"                                V+O+K.j.z.d+W+R+X+Y+K.z.z.z.z.z.z.z.z.z.z.z.z.z.z.z.j.J.S+Z+`+ @O+K.j.z.                        ",
"                            .@+@@@#@K.j.e+K+$@@@%@K+d+j.z.z.z.z.z.z.z.z.z.z.z.z.z.z.j.J.&@I+*@=@-@B+j.z.z.                      ",
"                            ;@`+@@O+>@,@a.'@)@!@~@K+d+j.z.z.z.z.z.z.z.z.z.z.z.z.z.z.j.J.S+{@]@^@H+K.j.z.                        ",
"                          /@(@_@:@<@[@}@|@1@2@3@4@5@f+j.z.z.z.z.z.z.z.z.z.z.z.z.z.z.z.J.6@H+7@8@9@0@N+J.j.                      ",
"                        a@b@c@d@e@f@:@g@h@i@j@k@l@m@X.j.z.z.z.z.z.z.z.z.z.z.z.z.z.z.z.z.z.d+K+J+n@o@p@>@q@r@                    ",
"                        / s@t@u@v@w@x@y@z@A@B@C@D@E@e+j.z.z.z.z.z.z.z.z.z.z.z.z.z.z.z.z.j.J.F@%@G@H@I@t+J@K@                    ",
"                          / i L@M@N@O@P@Q@R@S@T@U@V@d+j.z.z.z.z.z.z.z.z.z.z.z.z.z.z.z.z.z.z.K.W@X@Y@Z@`@ #.#                    ",
"                            f +#) @###$#%#&#*#=#-#;#>#j.z.z.z.z.z.z.z.z.z.z.z.z.z.z.z.z.z.z.j.,#'#)#!#~#{#]#                    ",
"                                m 9 c ^#/#(#_#:#<#[#>#j.z.z.z.z.z.z.z.z.z.z.z.z.z.z.z.z.z.z.z.z.}#    f                         ",
"                                b@|#  1#2#3#4#e+5#6#z.z.z.z.z.z.z.z.z.z.z.z.z.z.z.z.z.z.J.d+f+d+d+                              ",
"                                        7#8#9#j.j.z.z.z.z.z.z.z.z.z.z.z.z.z.z.z.z.z.j.z.G+0#a#b#b#                              ",
"                                        j.j.z.z.z.z.e+w+0@W+z.j.j.z.z.z.z.j.>@&@Y+Y+[@Y+c#d#e#e#                                ",
"                                        z.z.z.z.z.j.K.u+0#G+d+u.W+e+z.j.d+W+[@T+.@.@.@.@.@.@.@                                  ",
"                                        z.z.z.z.z.z.z.d+e+e+f#g#h#i#K.e+j#b#@@;@.@.@.@.@.@.@.@                                  ",
"                                        z.z.z.z.z.z.z.j.>@[@k#l#^@Z+m#m#T+@@.@.@.@.@.@.@.@.@.@                                  ",
"                                        z.z.z.z.z.j.d+w+0#{@.@`+.@`+`+`+`+.@.@.@.@.@.@`+`+`+`+                                  ",
"                                        j.n#z.j.J.u.S+9@;@`+.@.@.@.@.@.@.@.@.@.@`+.@o#h#p#q#c#                                  ",
"                                        r#q@J.d+6@0#P+.@.@.@.@.@.@.@.@.@.@.@.@.@s#t#0#W+J.d+d+                                  ",
"                                        u#:#Y.K+k#@@|@`+.@.@.@.@.@.@.@.@.@.@`+v#m#i#>@d+J.J.J.                                  ",
"                                    w#x#y#z#A#B#C#D#E#F#                    V G#H#I#c+J#K#L#-@                                  ",
"                                    M#N#O#P#Q#R#S#T#U#                        V#W#X#Y#Z#`# $.$                                  ",
"                                    ; _ / ' 6 +$@$                            #$$$%$&$*$=$-$;$                                  ",
"                                                                                                                                ",
"                                                                                                                                ",
"                                                                                                                                ",
"                                                                                                                                ",
"                                                                                                                                ",
"                                                                                                                                ",
"                                                                                                                                ",
"                                                                                                                                ",
"                                                                                                                                ",
"                                                                                                                                "};
