/* XPM */
static char * enemy4_xpm[] = {
"64 64 349 2",
"  	c None",
". 	c #612128",
"+ 	c #602127",
"@ 	c #5F2027",
"# 	c #602128",
"$ 	c #501A20",
"% 	c #3F1419",
"& 	c #401419",
"* 	c #41151A",
"= 	c #551C23",
"- 	c #541C22",
"; 	c #45161C",
"> 	c #45161B",
", 	c #3C1317",
"' 	c #331014",
") 	c #341014",
"! 	c #49181D",
"~ 	c #5B1F25",
"{ 	c #622128",
"] 	c #5A1E25",
"^ 	c #4C191F",
"/ 	c #4A181E",
"( 	c #331013",
"_ 	c #330F13",
": 	c #320F13",
"< 	c #310F13",
"[ 	c #361115",
"} 	c #46161C",
"| 	c #4B181E",
"1 	c #501B20",
"2 	c #5E2027",
"3 	c #531B22",
"4 	c #511B21",
"5 	c #46171C",
"6 	c #381216",
"7 	c #4D191F",
"8 	c #391216",
"9 	c #43151A",
"0 	c #47171C",
"a 	c #44161B",
"b 	c #5C1F26",
"c 	c #4F1A20",
"d 	c #3D1318",
"e 	c #561D23",
"f 	c #421419",
"g 	c #370B13",
"h 	c #4B141C",
"i 	c #5A1B24",
"j 	c #5D1C25",
"k 	c #4D181F",
"l 	c #42151A",
"m 	c #48171D",
"n 	c #591E24",
"o 	c #571D23",
"p 	c #3E1318",
"q 	c #351015",
"r 	c #3B1317",
"s 	c #531C22",
"t 	c #5A1C24",
"u 	c #572728",
"v 	c #523A31",
"w 	c #503D33",
"x 	c #5D4037",
"y 	c #673E38",
"z 	c #5C2629",
"A 	c #4C171E",
"B 	c #411419",
"C 	c #42131A",
"D 	c #571E24",
"E 	c #381116",
"F 	c #351014",
"G 	c #40211F",
"H 	c #604B3D",
"I 	c #88735C",
"J 	c #99745E",
"K 	c #A0725D",
"L 	c #966A56",
"M 	c #614136",
"N 	c #512324",
"O 	c #5E272A",
"P 	c #663230",
"Q 	c #6B2123",
"R 	c #6E111A",
"S 	c #67121A",
"T 	c #451217",
"U 	c #361116",
"V 	c #371115",
"W 	c #85725D",
"X 	c #8A7A63",
"Y 	c #9A7A64",
"Z 	c #DC544B",
"` 	c #F82C37",
" .	c #E84442",
"..	c #A46E5B",
"+.	c #645545",
"@.	c #5D4A3D",
"#.	c #956F5B",
"$.	c #DB4643",
"%.	c #F3102D",
"&.	c #EF172E",
"*.	c #B5A38C",
"=.	c #B4A38C",
"-.	c #BB9D87",
";.	c #EB625B",
">.	c #FF002C",
",.	c #F54B4B",
"'.	c #C49480",
").	c #978973",
"!.	c #91826C",
"~.	c #B99983",
"{.	c #ED6059",
"].	c #FF1530",
"^.	c #FF2034",
"/.	c #BEAC95",
"(.	c #BDAC95",
"_.	c #BFAA93",
":.	c #CE9985",
"<.	c #D68E7D",
"[.	c #D29582",
"}.	c #C1A690",
"|.	c #B5A48D",
"1.	c #B4A28B",
"2.	c #BEA891",
"3.	c #CF9885",
"4.	c #D68F7E",
"5.	c #D5907E",
"6.	c #BDAB94",
"7.	c #C1AF98",
"8.	c #D7C7B0",
"9.	c #D3C4AC",
"0.	c #C5B59E",
"a.	c #DBCAB2",
"b.	c #CFBEA6",
"c.	c #CBB9A1",
"d.	c #DDCBB4",
"e.	c #C9B9A2",
"f.	c #BBAD95",
"g.	c #B2A18B",
"h.	c #A49481",
"i.	c #E5D3BD",
"j.	c #DAC9B3",
"k.	c #AE9E8B",
"l.	c #EDDBC4",
"m.	c #CCBBA6",
"n.	c #BDAD99",
"o.	c #F1DFC8",
"p.	c #BDAC98",
"q.	c #A69581",
"r.	c #BCAA93",
"s.	c #BFAD95",
"t.	c #A4937F",
"u.	c #5D4E45",
"v.	c #B6A796",
"w.	c #C1B19F",
"x.	c #A59787",
"y.	c #CABAA7",
"z.	c #958779",
"A.	c #7F7266",
"B.	c #C5B6A3",
"C.	c #7F7165",
"D.	c #827262",
"E.	c #BBA993",
"F.	c #AB9A85",
"G.	c #6C5D50",
"H.	c #3F2C28",
"I.	c #AFA08F",
"J.	c #E6D5BF",
"K.	c #918374",
"L.	c #402C27",
"M.	c #51423C",
"N.	c #796C60",
"O.	c #50413B",
"P.	c #847565",
"Q.	c #B3A28C",
"R.	c #7A6A5C",
"S.	c #AE9F8E",
"T.	c #EAD8C1",
"U.	c #C4B29C",
"V.	c #837363",
"W.	c #97897A",
"X.	c #DDCDB7",
"Y.	c #968879",
"Z.	c #897969",
"`.	c #BBAA93",
" +	c #B5A48E",
".+	c #C5B39C",
"++	c #BFAD96",
"@+	c #B6A48E",
"#+	c #B9A791",
"$+	c #C4B29B",
"%+	c #B8A791",
"&+	c #B6A58F",
"*+	c #B9A790",
"=+	c #A3917A",
"-+	c #AD9B84",
";+	c #BDAB93",
">+	c #B7A58E",
",+	c #A29078",
"'+	c #B09E87",
")+	c #B8A68F",
"!+	c #998770",
"~+	c #A8967F",
"{+	c #98856E",
"]+	c #AB9982",
"^+	c #A4927B",
"/+	c #938069",
"(+	c #98866F",
"_+	c #AC9A83",
":+	c #938068",
"<+	c #9F8D75",
"[+	c #B2A089",
"}+	c #97846D",
"|+	c #9F8D76",
"1+	c #8E7B63",
"2+	c #A7957E",
"3+	c #B6A48D",
"4+	c #97856D",
"5+	c #A29079",
"6+	c #928068",
"7+	c #9F8C75",
"8+	c #BAA891",
"9+	c #8E7C64",
"0+	c #B5A28C",
"a+	c #9A8670",
"b+	c #89745E",
"c+	c #96836C",
"d+	c #BBA992",
"e+	c #A28F78",
"f+	c #9E8C75",
"g+	c #8B7660",
"h+	c #8E7A63",
"i+	c #A7947D",
"j+	c #B19F88",
"k+	c #95826B",
"l+	c #765347",
"m+	c #725043",
"n+	c #907D67",
"o+	c #A5937C",
"p+	c #A08E77",
"q+	c #5F1F27",
"r+	c #632A2C",
"s+	c #6E453D",
"t+	c #866F5A",
"u+	c #94826A",
"v+	c #8C7761",
"w+	c #734F43",
"x+	c #572325",
"y+	c #675347",
"z+	c #AD9C87",
"A+	c #9C8972",
"B+	c #B3A18A",
"C+	c #BDAA94",
"D+	c #4E181F",
"E+	c #61252A",
"F+	c #6C403A",
"G+	c #806654",
"H+	c #86705B",
"I+	c #745145",
"J+	c #7D6150",
"K+	c #745647",
"L+	c #6F4C45",
"M+	c #AE9B86",
"N+	c #BEAD95",
"O+	c #A4937E",
"P+	c #705E4F",
"Q+	c #A99783",
"R+	c #A58F7C",
"S+	c #826257",
"T+	c #5C1C25",
"U+	c #623D35",
"V+	c #61453A",
"W+	c #612A2C",
"X+	c #5F4036",
"Y+	c #6C5645",
"Z+	c #8A7360",
"`+	c #B3A08A",
" @	c #A08F7C",
".@	c #533C36",
"+@	c #7B5F54",
"@@	c #7A544D",
"#@	c #5F1B25",
"$@	c #401118",
"%@	c #370511",
"&@	c #502727",
"*@	c #7D685B",
"=@	c #857060",
"-@	c #866C5B",
";@	c #B29E89",
">@	c #9A8873",
",@	c #513831",
"'@	c #450011",
")@	c #52121D",
"!@	c #36000B",
"~@	c #522E2C",
"{@	c #A28F7C",
"]@	c #AE9985",
"^@	c #977D6E",
"/@	c #B4A18B",
"(@	c #AF9C86",
"_@	c #AE9C85",
":@	c #8C7961",
"<@	c #86675C",
"[@	c #AB9682",
"}@	c #A6947D",
"|@	c #A99780",
"1@	c #917F67",
"2@	c #8D7A62",
"3@	c #9D8A73",
"4@	c #8F7C64",
"5@	c #907D65",
"6@	c #AA9781",
"7@	c #95826A",
"8@	c #A4917A",
"9@	c #948169",
"0@	c #8E7A62",
"a@	c #927769",
"b@	c #B09B87",
"c@	c #A18F78",
"d@	c #927F67",
"e@	c #A5937B",
"f@	c #460916",
"g@	c #61262B",
"h@	c #82695C",
"i@	c #907F6B",
"j@	c #8B7760",
"k@	c #7F6452",
"l@	c #826855",
"m@	c #7F6C57",
"n@	c #796755",
"o@	c #AD9B86",
"p@	c #968573",
"q@	c #A5937D",
"r@	c #4B191E",
"s@	c #521B21",
"t@	c #4A0E19",
"u@	c #5C4136",
"v@	c #735E4C",
"w@	c #673D37",
"x@	c #53302E",
"y@	c #8A7868",
"z@	c #806C5E",
"A@	c #54322C",
"B@	c #6F5B49",
"C@	c #581E24",
"D@	c #551C22",
"E@	c #381417",
"F@	c #46191D",
"G@	c #4D1B20",
"H@	c #3F1619",
"                                                                                                                                ",
"                                                                                                                                ",
"                                                                                                                                ",
"                                                                                                                                ",
"                                                                                                                                ",
"                                                                                                                                ",
"                                                                                                                                ",
"                                                                                                                                ",
"                                                                                                                                ",
"                                                                                                                                ",
"                                                                                                                                ",
"                                                                                                                                ",
"                                                                                                                                ",
"                                                  . . . . . . . . . . . . . .                                                   ",
"                                          . . . . . . . . . . . . . . . . . . . . . .                                           ",
"                                    . . . . . . . . . . . . . . . . . . . . . . . . . . .                                       ",
"                                  . . . . . . . . . . . . . . . . + @ @ @ @ @ @ # . . . . .                                     ",
"                              . . . . . . . . . . . . # # # # # + $ % & & & % * = . # . . . .                                   ",
"                              . . . . . . . . . . . - ; ; ; ; ; > , ' ' ' ' ' ) % > ! ~ { . .                                   ",
"                              . . . . . . { { ] ^ / % ( _ : < < : ( ' ) ) ) ) ) : < [ } | 1 2                                   ",
"                                . . . { 2 3 4 5 6 5 & _ [ 5 7 ! 8 9 0 [ _ _ : ) a } [ ( < & b                                   ",
"                                  . . b c 6 _ : d ] e f g h i j k $ 7 8 l 0 0 m n o 8 ' ' p ]                                   ",
"                                    . c q ) ) ' r s t u v w x y z A B C 4 D D n ] $ E ' ) )                                     ",
"                                                F 6 G H I J K L M N O P Q R S T U V )                                           ",
"                                                    W X Y Z `  ...+.@.#.$.%.&.                                                  ",
"                                                    *.=.-.;.>.,.'.).!.~.{.].^.                                                  ",
"                                                    /.(._.:.<.[.}.|.1.2.3.4.5.                                                  ",
"                                                    6.6.7.8.9.0.a.b.c.d.e.f.f.                                                  ",
"                                                  6./.g.h.i.j.k.l.m.n.o.p.q.r.6.                                                ",
"                                                  6.s.t.u.v.w.x.y.z.A.B.C.D.E.6.                                                ",
"                                            6.6.6.6./.F.G.H.I.J.K.L.M.N.O.P.E.6.6.                                              ",
"                                          6.6.6.6.6.6.r.Q.R.S.T.U.V.W.X.Y.Z.`.6.6.6.                                            ",
"                                          6.6.6.6.r.r.6.r. +E..+++@+#+$+%+&+r.r.r.6.                                            ",
"                                        6.6.6./.*+=+-+6.6.6.6.;+6.6.6.6.6./.>+,+'+6.                                            ",
"                                    6.6.6.6.6./.)+!+~+6.6.6.6.6.6.6.6.6.6./.*.{+]+6.6.                                          ",
"                                    /.6.6.6.6.*.^+/+~+6.6.6.6.6.6.6.6.6.6./.*.(+_+/.6.                                          ",
"                                    _+*.6.6./.-+:+<+[+6.6.6.6.6.6.6.6.6.6./.*.}+|+[+r.6.                                        ",
"                                    1+2+6.6.3+^+4+*./.6.6.6.6.6.6.6.6.6.6./.)+5+6+7+8+6.6.                                      ",
"                                  1+9+~+r.0+a+b+c+*./.6.6.6.6.6.6.6.6.6.6.6.6.d+e+f+8+6.6.                                      ",
"                                  g+h+i+j+k+l+m+n+1./.6.6.6.6.6.6.6.6.6.6.6.6.r.o+p+>+r.6.                                      ",
"                              q+r+s+t+6+u+v+w+x+y+z+/.6.6.6.6.6.6.6.6.6.6.6.6.6.8+_+A+B+C+8+                                    ",
"                              l D+E+F+G+H+I+J+K+L+M+N+6.6.6.6.6.6.6.6.6.6.6.6.6./.O+P+Q+R+S+                                    ",
"                                % | T+U+V+W+X+Y+Z+`+/.6.6.6.6.6.6.6.6.6.6.6.6./.++ @.@+@@@#@                                    ",
"                                  8 / $@%@&@*@=@-@;@++/.6.6.6.6.6.6.6./././.8+]+2+>@,@'@)@                                      ",
"                                    ! l !@~@{@]@^@/@*.j+r./.6.6.6./.*+(@-+_@~+:+:@                                              ",
"                                    .     <@[@/.6.6._+}@8+3+>+6.6.)+|@1@2@1+1+1+                                                ",
"                                          d+r.6.6.6.r.d+*.3@p+3+3+5+4@1+1+1+1+1+                                                ",
"                                          6.6.6.6.6.r.j+}+4@5@:+:+5@1+1+1+1+1+1+                                                ",
"                                          6.6.6.6.r.6@7@4@1+1+1+1+1+1+1+1+4@5@5@                                                ",
"                                          6.6./.*+8@9@0@1+1+1+1+1+1+1+1+1+|+j+[+                                                ",
"                                          a@b@*.c@d@2@1+1+1+1+1+1+1+1+d@e@3+s.++                                                ",
"                                        f@g@h@i@j@k@l@1+1+1+1+1+1+4@m@n@o@z+p@q@                                                ",
"                                      m r@s@t@u@v@w@                  x@y@z@A@B@                                                ",
"                                        C@% D@- E@                    2 F@G@] H@                                                ",
"                                                                                                                                ",
"                                                                                                                                ",
"                                                                                                                                ",
"                                                                                                                                ",
"                                                                                                                                ",
"                                                                                                                                ",
"                                                                                                                                ",
"                                                                                                                                ",
"                                                                                                                                ",
"                                                                                                                                "};
