/* XPM */
static char * enemy3_xpm[] = {
"64 64 457 2",
"  	c None",
". 	c #612128",
"+ 	c #622128",
"@ 	c #5A1E25",
"# 	c #511B21",
"$ 	c #4F1A20",
"% 	c #541C22",
"& 	c #5E2027",
"* 	c #602128",
"= 	c #5C1F26",
"- 	c #591E24",
"; 	c #4C191F",
"> 	c #381216",
", 	c #341014",
"' 	c #351014",
") 	c #3E1418",
"! 	c #531B21",
"~ 	c #602127",
"{ 	c #4A181E",
"] 	c #3C1318",
"^ 	c #3D1318",
"/ 	c #391216",
"( 	c #361115",
"_ 	c #3B1217",
": 	c #3C1317",
"< 	c #401419",
"[ 	c #521B21",
"} 	c #5F2027",
"| 	c #5B1F25",
"1 	c #4D191F",
"2 	c #48171D",
"3 	c #46161C",
"4 	c #331013",
"5 	c #320F13",
"6 	c #330F13",
"7 	c #331014",
"8 	c #49181D",
"9 	c #551C23",
"0 	c #551C22",
"a 	c #4C191E",
"b 	c #3A1217",
"c 	c #44161B",
"d 	c #47171C",
"e 	c #48181D",
"f 	c #43151A",
"g 	c #381116",
"h 	c #45161C",
"i 	c #43161B",
"j 	c #41151A",
"k 	c #4E1A1F",
"l 	c #371115",
"m 	c #4E191F",
"n 	c #49171D",
"o 	c #571D24",
"p 	c #45161B",
"q 	c #4B191E",
"r 	c #561D23",
"s 	c #46171C",
"t 	c #3A1216",
"u 	c #581E24",
"v 	c #531B22",
"w 	c #3F1419",
"x 	c #501B21",
"y 	c #3D1519",
"z 	c #3A1518",
"A 	c #47191D",
"B 	c #591F25",
"C 	c #5A1F25",
"D 	c #501A20",
"E 	c #351015",
"F 	c #42151A",
"G 	c #4D181E",
"H 	c #4D131D",
"I 	c #57332E",
"J 	c #685343",
"K 	c #6A5B4A",
"L 	c #695B4A",
"M 	c #715D4D",
"N 	c #6D5245",
"O 	c #562D2B",
"P 	c #4C121C",
"Q 	c #4E161E",
"R 	c #4B151D",
"S 	c #46191F",
"T 	c #441A1F",
"U 	c #451A1F",
"V 	c #4B1A1F",
"W 	c #330D13",
"X 	c #3B1D1B",
"Y 	c #4C352C",
"Z 	c #675544",
"` 	c #87725C",
" .	c #A0755F",
"..	c #AF6E5A",
"+.	c #B26D5A",
"@.	c #A06452",
"#.	c #6D493C",
"$.	c #52302B",
"%.	c #5A2527",
"&.	c #653833",
"*.	c #743B36",
"=.	c #862326",
"-.	c #8D101D",
";.	c #88121D",
">.	c #691119",
",.	c #391015",
"'.	c #87745F",
").	c #8A7A63",
"!.	c #947C65",
"~.	c #C76456",
"{.	c #F13A3D",
"].	c #F72E38",
"^.	c #E04C47",
"/.	c #A56D5A",
"(.	c #6D5E4D",
"_.	c #553C33",
":.	c #736250",
"<.	c #AB6A59",
"[.	c #E13E3E",
"}.	c #F3112D",
"|.	c #F1172E",
"1.	c #B09E86",
"2.	c #AE9E86",
"3.	c #B29A84",
"4.	c #DA7668",
"5.	c #FD2637",
"6.	c #FF0026",
"7.	c #F05450",
"8.	c #C18E7A",
"9.	c #968973",
"0.	c #82705C",
"a.	c #998B75",
"b.	c #C68B78",
"c.	c #F34E4C",
"d.	c #FF002B",
"e.	c #FF0C2E",
"f.	c #BEAC95",
"g.	c #BDAC95",
"h.	c #BFAA93",
"i.	c #D39381",
"j.	c #E67167",
"k.	c #EA6B62",
"l.	c #DF8173",
"m.	c #C5A18B",
"n.	c #B0A089",
"o.	c #A7957E",
"p.	c #B2A18A",
"q.	c #C89F8A",
"r.	c #E17F71",
"s.	c #EA6D64",
"t.	c #E96E65",
"u.	c #BDAB94",
"v.	c #BEAB94",
"w.	c #C4AE98",
"x.	c #C8B09A",
"y.	c #C4AB95",
"z.	c #C2AB95",
"A.	c #C5B29B",
"B.	c #C2B099",
"C.	c #C2B19A",
"D.	c #C2AB94",
"E.	c #C1A791",
"F.	c #C1A891",
"G.	c #BCAA93",
"H.	c #D7C5AE",
"I.	c #E7D6BF",
"J.	c #D0BFA8",
"K.	c #CBBAA3",
"L.	c #E6D4BD",
"M.	c #DBCAB3",
"N.	c #C6B49D",
"O.	c #DECCB5",
"P.	c #E5D3BC",
"Q.	c #C8B7A0",
"R.	c #BBAA93",
"S.	c #BCAB94",
"T.	c #AF9E88",
"U.	c #998977",
"V.	c #CCBCA7",
"W.	c #EFDEC6",
"X.	c #BCAC99",
"Y.	c #B0A18E",
"Z.	c #EBDAC3",
"`.	c #D6C6B0",
" +	c #A69684",
".+	c #DBCAB5",
"++	c #E9D8C1",
"@+	c #AD9E8B",
"#+	c #9F8E7B",
"$+	c #B9A791",
"%+	c #A2927E",
"&+	c #625348",
"*+	c #9F9082",
"=+	c #D0C0AC",
"-+	c #B0A190",
";+	c #A79989",
">+	c #CEBEAB",
",+	c #AD9E8E",
"'+	c #695B52",
")+	c #B3A493",
"!+	c #C4B4A2",
"~+	c #76695E",
"{+	c #7D6E5F",
"]+	c #B6A48E",
"^+	c #BFAC95",
"/+	c #A69581",
"(+	c #66574B",
"_+	c #463630",
":+	c #7D6F63",
"<+	c #CEBEAA",
"[+	c #D8C7B3",
"}+	c #938476",
"|+	c #50413A",
"1+	c #3E2C28",
"2+	c #62544C",
"3+	c #483832",
"4+	c #807061",
"5+	c #A3927F",
"6+	c #726254",
"7+	c #675950",
"8+	c #D2C1AE",
"9+	c #EAD8C1",
"0+	c #B4A490",
"a+	c #746456",
"b+	c #5A4B43",
"c+	c #AC9D8D",
"d+	c #BBAC9A",
"e+	c #706358",
"f+	c #7D6D5E",
"g+	c #B5A38C",
"h+	c #AF9D87",
"i+	c #B8A68F",
"j+	c #A3927E",
"k+	c #948574",
"l+	c #C9B8A3",
"m+	c #DCCBB3",
"n+	c #A4937F",
"o+	c #938473",
"p+	c #D4C3AD",
"q+	c #9F907E",
"r+	c #9A8A77",
"s+	c #A8967F",
"t+	c #99876F",
"u+	c #AF9D86",
"v+	c #BBA992",
"w+	c #BFAD96",
"x+	c #BDAB95",
"y+	c #BEAC96",
"z+	c #BBA993",
"A+	c #B9A790",
"B+	c #A7947D",
"C+	c #98856D",
"D+	c #BAA891",
"E+	c #A28F78",
"F+	c #B6A48D",
"G+	c #98866E",
"H+	c #96836B",
"I+	c #A29079",
"J+	c #B3A18A",
"K+	c #B2A089",
"L+	c #B09E87",
"M+	c #97846C",
"N+	c #938169",
"O+	c #A18F77",
"P+	c #B3A18B",
"Q+	c #A3917A",
"R+	c #97846D",
"S+	c #AA9881",
"T+	c #B7A58E",
"U+	c #938068",
"V+	c #A39079",
"W+	c #AD9B84",
"X+	c #97856D",
"Y+	c #A4927B",
"Z+	c #907D65",
"`+	c #927F67",
" @	c #8D7A62",
".@	c #9F8D76",
"+@	c #A9967F",
"@@	c #99866F",
"#@	c #8E7B63",
"$@	c #A18F78",
"%@	c #8F7D64",
"&@	c #8E7C63",
"*@	c #A08E77",
"=@	c #A6937D",
"-@	c #8C7461",
";@	c #816854",
">@	c #8F7B64",
",@	c #A08D76",
"'@	c #948169",
")@	c #836B57",
"!@	c #89735D",
"~@	c #8C7961",
"{@	c #9E8B74",
"]@	c #A5937C",
"^@	c #8C7661",
"/@	c #714C41",
"(@	c #6C453C",
"_@	c #836D59",
":@	c #A4927C",
"<@	c #9B8871",
"[@	c #612429",
"}@	c #653130",
"|@	c #856D59",
"1@	c #917E67",
"2@	c #96836C",
"3@	c #938069",
"4@	c #88725C",
"5@	c #714B41",
"6@	c #593F37",
"7@	c #92816F",
"8@	c #9C8972",
"9@	c #907E66",
"0@	c #AE9B85",
"a@	c #571821",
"b@	c #642C2E",
"c@	c #806553",
"d@	c #8A755F",
"e@	c #836A57",
"f@	c #795A4B",
"g@	c #7C5F4F",
"h@	c #705143",
"i@	c #5E3632",
"j@	c #917B6C",
"k@	c #BAA791",
"l@	c #94826D",
"m@	c #776554",
"n@	c #9F8E79",
"o@	c #B6A38D",
"p@	c #A08977",
"q@	c #927768",
"r@	c #581C23",
"s@	c #5E1F26",
"t@	c #6B443C",
"u@	c #78614F",
"v@	c #6F4D42",
"w@	c #663633",
"x@	c #735949",
"y@	c #765F4D",
"z@	c #77574A",
"A@	c #9C8573",
"B@	c #BEAC94",
"C@	c #9A8977",
"D@	c #5B473F",
"E@	c #847061",
"F@	c #9C8574",
"G@	c #7A544C",
"H@	c #5E1421",
"I@	c #562325",
"J@	c #472623",
"K@	c #512324",
"L@	c #5C272A",
"M@	c #593A34",
"N@	c #685345",
"O@	c #85705B",
"P@	c #A5927C",
"Q@	c #9E8D7A",
"R@	c #574139",
"S@	c #542829",
"T@	c #673837",
"U@	c #642B2E",
"V@	c #612028",
"W@	c #3E1218",
"X@	c #350C13",
"Y@	c #37000D",
"Z@	c #5B403A",
"`@	c #907E6D",
" #	c #968170",
".#	c #7E5F52",
"+#	c #9B8472",
"@#	c #350000",
"##	c #440D17",
"$#	c #3B1116",
"%#	c #380000",
"&#	c #664941",
"*#	c #A69380",
"=#	c #B39F8A",
"-#	c #9C8373",
";#	c #A8927F",
">#	c #AC9A82",
",#	c #5F1E26",
"'#	c #754E47",
")#	c #87685C",
"!#	c #AC9783",
"~#	c #8F7C64",
"{#	c #8F7C65",
"]#	c #B4A18B",
"^#	c #AE9C85",
"/#	c #A6947D",
"(#	c #AB9982",
"_#	c #8D7961",
":#	c #8C7960",
"<#	c #A5927B",
"[#	c #917E66",
"}#	c #A08E76",
"|#	c #8E7C64",
"1#	c #907D66",
"2#	c #9C8A72",
"3#	c #8E7A62",
"4#	c #B09D87",
"5#	c #9A8171",
"6#	c #A18A78",
"7#	c #B5A18C",
"8#	c #AC9A83",
"9#	c #95826A",
"0#	c #B19F88",
"a#	c #591621",
"b#	c #734A44",
"c#	c #9A8573",
"d#	c #A4937D",
"e#	c #94816A",
"f#	c #8A755E",
"g#	c #87715C",
"h#	c #8B7660",
"i#	c #85725C",
"j#	c #92806B",
"k#	c #B2A08A",
"l#	c #B7A58F",
"m#	c #AE9D87",
"n#	c #B19F89",
"o#	c #50181F",
"p#	c #5E282B",
"q#	c #5C3D38",
"r#	c #6D5B4C",
"s#	c #85715C",
"t#	c #7D6150",
"u#	c #6C413A",
"v#	c #89765F",
"w#	c #685444",
"x#	c #736153",
"y#	c #A99783",
"z#	c #9D8C79",
"A#	c #6D5A4E",
"B#	c #7F6C5A",
"C#	c #4A161D",
"D#	c #4D101B",
"E#	c #562E2A",
"F#	c #60483C",
"G#	c #62463A",
"H#	c #603932",
"I#	c #5F3B37",
"J#	c #766256",
"K#	c #70584D",
"L#	c #562A2A",
"M#	c #593A31",
"N#	c #604C3E",
"O#	c #602027",
"P#	c #571D23",
"Q#	c #561B22",
"R#	c #3B0C15",
"S#	c #581B23",
"T#	c #3D0512",
"U#	c #470E18",
"V#	c #5B1E25",
"W#	c #4A151C",
"X#	c #320610",
"                                                                                                                                ",
"                                                                                                                                ",
"                                                                                                                                ",
"                                            . . . . . . . . . . . . . . . . . . . . . . . . . . . .                             ",
"                                      . . . . . . . . . . . . . . . . . . . . . . . . . . . . . . . . . .                       ",
"                                    . . . . . . . . . . . . . . . . . . . . . . . . . . . . . . . . . . . .                     ",
"                                  . . . . . . . . . . . . . . . . . . . . . . . . . . . . . . . . . . . . . .                   ",
"                                  . . . . . . . . . . . . . . . . . . . . . . . . . . . . . . . . . . . . . .                   ",
"                                  . . . . . . . . . . . . . . + + + + + + . @ # $ $ $ $ $ $ % & + + . . . . .                   ",
"                                  . . . . . . . . . . . . * = @ @ @ @ @ @ - ; > , ' ' ' ' , ) ! @ @ & . . . .                   ",
"                                  . . . . . . . . . . ~ * = { ] ] ] ] ] ^ ] / ' , , , , , , ( _ : < [ } ~ * .                   ",
"                                    . . . . . . + + | 1 2 3 _ 4 4 5 5 5 5 6 7 7 , , , , , , , 5 5 , < 2 8 1                     ",
"                                      . . . * | 9 0 a b ^ c _ 4 , ) d e f g ^ h ^ , 7 7 7 5 g i j ( 7 7 7 6                     ",
"                                            } k / l ( l m @ { / l n @ } o p q r s ( t : : _ p u v b 4 , , ,                     ",
"                                              w , 7 4 l k & = x y z A B * C D i / w [ - - - | } % _ 4 ,                         ",
"                                                  , 7 E F G H I J K L M N O P m Q R S T U V # @   b 4                           ",
"                                                      , W X Y Z `  ...+.@.#.$.%.&.*.=.-.;.>.,.                                  ",
"                                                            '.).!.~.{.].^./.(._.:.<.[.}.|.                                      ",
"                                                            1.2.3.4.5.6.7.8.9.0.a.b.c.d.e.                                      ",
"                                                            f.g.h.i.j.k.l.m.n.o.p.q.r.s.t.                                      ",
"                                                            u.u.v.w.x.y.z.A.B.u.C.A.D.E.F.                                      ",
"                                                          u.u.G.f.H.I.J.K.L.M.N.O.P.Q.R.S.                                      ",
"                                                    u.u.u.u.u.T.U.V.W.X.Y.Z.`. +.+++@+#+$+f.                                    ",
"                                                  u.u.u.u.u.f.%+&+*+=+-+;+>+,+'+)+!+~+{+]+^+u.                                  ",
"                                                u.u.u.u.u.u.f./+(+_+:+<+[+}+|+1+2+'+3+4+]+^+u.                                  ",
"                                              u.u.u.u.u.u.u.u.]+5+6+7+8+9+0+a+b+c+d+e+f+]+^+u.u.                                ",
"                                              u.u.u.u.G.g+h+i+f.u.j+k+l+m+N.n+o+l+p+q+r+$+f.f.u.u.                              ",
"                                            u.u.u.u.f.G.s+t+u+u.u.G.v+f.w+x+G.v+f.y+z+z+G.A+i+G.u.                              ",
"                                        u.u.u.u.u.u.u.v+B+C+u+u.u.u.u.u.u.u.u.u.u.u.u.f.D+s+E+g+f.u.                            ",
"                                        f.f.u.u.u.u.F+s+G+H+u+u.u.u.u.u.u.u.u.u.u.u.u.f.D+I+t+J+f.u.                            ",
"                                        K+F+G.u.u.f.L+M+N+O+P+u.u.u.u.u.u.u.u.u.u.u.u.f.D+Q+R+S+T+G.u.                          ",
"                                        U+V+i+f.u.v+W+X+Y+i+G.u.u.u.u.u.u.u.u.u.u.u.u.f.D+Q+Z+`+Y+A+f.u.                        ",
"                                       @ @.@i+w+A++@@@U+o.G.f.u.u.u.u.u.u.u.u.u.u.u.u.f.D+Q+#@ @$@A+f.u.                        ",
"                                    %@&@#@*@i+F+=@-@;@>@s+v+f.u.u.u.u.u.u.u.u.u.u.u.u.u.v+u+,@'@E+D+f.u.                        ",
"                                    )@!@~@{@L+]@^@/@(@_@:@v+f.u.u.u.u.u.u.u.u.u.u.u.u.u.u.u.P+<@{@J+v+u.                        ",
"                                  [@}@/@|@1@2@3@4@5@%.6@7@D+f.u.u.u.u.u.u.u.u.u.u.u.u.u.u.f.g+8@9@@@0@G.G.v+                    ",
"                                  1 a@b@5@c@d@e@f@g@h@i@j@k@f.u.u.u.u.u.u.u.u.u.u.u.u.u.u.u.D+u+l@m@n@o@p@q@                    ",
"                                  g q r@s@t@u@v@w@x@y@z@A@D+f.u.u.u.u.u.u.u.u.u.u.u.u.u.u.u.B@u.C@D@E@F@G@H@                    ",
"                                    l f r I@J@K@L@M@N@O@P@v+f.u.u.u.u.u.u.u.u.u.u.u.u.u.u.u.u.u.Q@R@S@T@U@V@                    ",
"                                        f W@X@Y@Z@`@ #.#+#D+f.u.u.u.u.u.u.u.u.u.u.u.u.u.u.u.u.u.P+  @###                        ",
"                                        a d $#%#&#*#=#-#;#v+f.u.u.u.u.u.u.u.f.G.K+S+S+S+S+S+S+S+>#                              ",
"                                        * ,#  '#)#!#u.G.G.u.u.u.u.u.u.u.u.u.D+J+.@Z+~#~#~#~#~#{#Z+                              ",
"                                              =#]#k@u.u.u.u.u.u.G.G.G.u.u.G.^#t+9@#@#@#@#@#@#@                                  ",
"                                              f.f.u.u.u.u.u.f.T+s+I+/#g+f.u.(#1@_##@#@#@#@#@#@                                  ",
"                                              u.u.u.u.u.f.G.g+o.'@:#`+<#L+u+I+[# @#@#@#@ @ @ @                                  ",
"                                              u.u.u.u.u.G.g+}#[#|##@#@[#`+`+Z+#@#@#@#@1#3@'@'@                                  ",
"                                              u.u.u.u.G.^#2#`+3##@#@#@#@ @ @#@#@#@#@~#{@4#J+K+                                  ",
"                                              5#6#7#A+8#2#~# @#@#@#@#@#@#@#@#@#@#@9#I+0#u.w+w+                                  ",
"                                              a#b#c#d#e#f#g#h##@#@#@#@#@#@#@#@ @i#j#k#l#m#n#g+                                  ",
"                                            _ o#p#q#r#s#t#u#    #@#@#@#@#@#@~#v#w#x#y#z#A#B#3@                                  ",
"                                            ! k C#D#E#F#G#                      H#I#J#K#L#M#N#                                  ",
"                                            O#1 w P#Q#R#                          S#T#U#V#W#X#                                  ",
"                                                                                                                                ",
"                                                                                                                                ",
"                                                                                                                                ",
"                                                                                                                                ",
"                                                                                                                                ",
"                                                                                                                                ",
"                                                                                                                                ",
"                                                                                                                                ",
"                                                                                                                                ",
"                                                                                                                                ",
"                                                                                                                                ",
"                                                                                                                                "};
