/* XPM */
static char * floor_xpm[] = {
"64 64 160 2",
"  	c None",
". 	c #5B5A7E",
"+ 	c #7678A2",
"@ 	c #6A6993",
"# 	c #7577A1",
"$ 	c #6A6A93",
"% 	c #6D6E97",
"& 	c #59587C",
"* 	c #494469",
"= 	c #484267",
"- 	c #62608A",
"; 	c #62608B",
"> 	c #6D6D97",
", 	c #63628C",
"' 	c #5E5C86",
") 	c #7779A3",
"! 	c #7677A1",
"~ 	c #6B6B94",
"{ 	c #393359",
"] 	c #70719B",
"^ 	c #6C6E97",
"/ 	c #6E6F99",
"( 	c #6E7099",
"_ 	c #73759F",
": 	c #3A3459",
"< 	c #72749D",
"[ 	c #7476A0",
"} 	c #74759F",
"| 	c #5F5C86",
"1 	c #6B6B95",
"2 	c #605D88",
"3 	c #3A355A",
"4 	c #6A6A94",
"5 	c #61628A",
"6 	c #62628B",
"7 	c #7576A0",
"8 	c #72739D",
"9 	c #5C5C85",
"0 	c #676690",
"a 	c #5C5A84",
"b 	c #66658F",
"c 	c #686791",
"d 	c #71729C",
"e 	c #545175",
"f 	c #474267",
"g 	c #5F5C87",
"h 	c #5C5983",
"i 	c #5A5681",
"j 	c #73749E",
"k 	c #6F7099",
"l 	c #686891",
"m 	c #4B476B",
"n 	c #61618A",
"o 	c #696892",
"p 	c #64628C",
"q 	c #57557F",
"r 	c #6C6C96",
"s 	c #6F709A",
"t 	c #56557E",
"u 	c #5E5E86",
"v 	c #56547E",
"w 	c #686892",
"x 	c #7678A3",
"y 	c #7679A3",
"z 	c #676790",
"A 	c #7577A0",
"B 	c #49456A",
"C 	c #70729B",
"D 	c #71739D",
"E 	c #5A5781",
"F 	c #4F4C76",
"G 	c #6F6F99",
"H 	c #484368",
"I 	c #5B5983",
"J 	c #66658E",
"K 	c #504D71",
"L 	c #352F55",
"M 	c #3C3863",
"N 	c #362F56",
"O 	c #3C3862",
"P 	c #332C51",
"Q 	c #322B4F",
"R 	c #373359",
"S 	c #39345D",
"T 	c #38345B",
"U 	c #2D2946",
"V 	c #363258",
"W 	c #3A345D",
"X 	c #39345C",
"Y 	c #2D2241",
"Z 	c #2C2241",
"` 	c #2E2545",
" .	c #2E2546",
"..	c #2D2242",
"+.	c #2F2546",
"@.	c #2D2343",
"#.	c #2E2444",
"$.	c #2C2140",
"%.	c #261E35",
"&.	c #2F2547",
"*.	c #2B213F",
"=.	c #201A28",
"-.	c #2E2344",
";.	c #373158",
">.	c #2E2445",
",.	c #3A355F",
"'.	c #3B3660",
").	c #3D3964",
"!.	c #3B3761",
"~.	c #363057",
"{.	c #352D53",
"].	c #3A365F",
"^.	c #352E53",
"/.	c #271E36",
"(.	c #362F55",
"_.	c #38335B",
":.	c #3D3863",
"<.	c #332B4F",
"[.	c #322A4E",
"}.	c #38325A",
"|.	c #3B365F",
"1.	c #2A223E",
"2.	c #363056",
"3.	c #383259",
"4.	c #3D3963",
"5.	c #373057",
"6.	c #3A355D",
"7.	c #3A355E",
"8.	c #30294A",
"9.	c #352E54",
"0.	c #3D3965",
"a.	c #39335B",
"b.	c #342C51",
"c.	c #38335A",
"d.	c #2F2949",
"e.	c #2F2848",
"f.	c #231C2F",
"g.	c #29203A",
"h.	c #302A4A",
"i.	c #332B50",
"j.	c #31284A",
"k.	c #332C50",
"l.	c #342D52",
"m.	c #30274A",
"n.	c #373159",
"o.	c #3B3760",
"p.	c #2F2647",
"q.	c #2F2446",
"r.	c #28203A",
"s.	c #282039",
"t.	c #29213C",
"u.	c #3C3761",
"v.	c #342D53",
"w.	c #302648",
"x.	c #2D2243",
"y.	c #271E37",
"z.	c #332C4F",
"A.	c #352F54",
"B.	c #31284B",
"C.	c #302749",
". + + + + + + + @ # + + + + + + + + + + + + + + @ # + + + + + + + + + + + + + + + + + + + + + + @ # + + + + + + $ # + + + + + . ",
". + + + + + + + + + + + + + + + + + + + + + + + + + + + + + + + % # + + + + + + + + + + + + + + + + + + + + + + $ # + + + + + . ",
"& + + + + + + + + + + + + + + + + + + + + + + + + + + + + + + + + + + + + + + + + + + + + + + + + + + + + + + + $ # + + + + + . ",
"* # + + + + + + + + + + + + + + + + + + + + + + + + + + + + + + + + + + + + + + + + + + + + + + + + + + + + + + $ # + + + + + . ",
"= - ; ; > + + + + + + + + + + + + + + + + + + + + + + + + + + + + + + + + + + + + + + + + + + + + + + + + + # , ' - ; ; ; > + . ",
"* # ) ) + + + + + + + + + + + + + + + + + + + + + + + + + + + + + + + + + + + + + + + + + + + + + + + + + + ! ~ , # ) ) ) + + . ",
"* # + + + + + + + + + + + + + + + + + + + + + + + + + + + + + + + + + + + + + + + + + + + + + + + + + + + + + + @ # + + + + + . ",
"{ % ] ^ / ( ] _ + + + + + + + + + + + + + + + + + + + + + + + + + + + + + + + + + + + + + + + + + + + + + + + + + + + + + + + . ",
": < [ _ } } _ | 1 + + + + + + + + + + + + + # 2 ' # + + + + + + + + + + + + + + + + + + + + + + + + + + + + + + + + + + + + + . ",
"3 [ + + + + + + + + + + + + + + + + + + + + + + $ # + + + + + + + + + + + + + + + + + + + + + + + + + + + + + + + + + + + + + . ",
"* # + + + + + + + + + + + + + + + + + + + + + + $ # + + + + + + + + + + + + + + + + + + + + + + + + + + + + + + + + + + + + + . ",
"* # + + + + + + + + + + + + + + ] # + + + + + + $ # + + + + + + + + + + + + + + + + + + + + + + + + + + + + + + + + + + + + + . ",
"* # + + + + + + + + + + + + + + 4 # + + + + + + $ # + + + + + + + + + + + + + + + + + + + + + + + + + + + + + + + + + + + + + . ",
"* # + + + + + + + + + + + + + + 5 [ + + + + + + 5 [ + + + + + + + + + + + + + + + + + + + + + + + + + + + + + + + + + + + + + . ",
"& + + + + + + + + + + + + + + + 6 [ + + + + + + 6 [ + + + + + + + + + + + + + + + + + + + + + + + + + + + + + + + + + + + + + . ",
". + + + + + + + + + + + + + + + 4 7 + + + + + + $ # + + + + + + + + + + + + + + + + + + + + + + + + + + + + + + + + + + + + + . ",
". + + + + + + + + + + + + + + + + > > 8 + + + + 4 # + + + + + + + + + + + + + + + + + + + + + + + + + + + + + + + + + + + + + . ",
". + + + + + + + + + + + + + + + + # 6 9 0 0 0 0 a b c # + + + + + + + + + + + + + + + + + + + + + + + + + + + + % # + + + + + . ",
". + + + + + + + + + + + + + + + + + + + + + + + $ # + + + + + + + + + + + + + + + + + + + + + + 4 # + + + + + + $ # + + + + + . ",
". + + + + + + + 4 # + + + + + + + + + + + + + + $ # + + + + + + + + + + + + + + + + + + + + + + 4 # + + + + + + $ # + + + + + . ",
". + + + + + + + $ # + + + + + + + + + + + + + + $ # + + + + + + + + + + + + + + + + + + + + + + 4 # + + + + + + $ # + + + + + . ",
". + + + + + + + $ # + + + + + + + + + + + + + + $ # + + + + + + + + + + + + + + + + + + + + + + 4 # + + + + + + $ # + + + + + . ",
". + + + + + + + + + + + + + + + + + + + + + + + + + + + + + + + d ! + + + + + + + + + + + + + + + + + + + + + + $ # + + + + + . ",
"e ! + + + + + + + + + + + + + + + + + + + + + + + + + + + + + + + + + + + + + + + + + + + + + + + + + + + + + + $ # + + + + + . ",
"* # + + + + + + + + + + + + + + + + + + + + + + + + + + + + + + + + + + + + + + + + + + + + + + + + + + + + + + $ # + + + + + . ",
"f g g g 1 + + + + + + + + + + + + + + + + + + + + + + + + + + + + + + + + + + + + + + + + + + + + + + + + + # h i g g g g 1 + . ",
"* # + + + + + + + + + + + + + + + + + + + + + + + + + + + + + + + + + + + + + + + + + + + + + + + + + + + + + j c # + + + + + . ",
"* # + + + + + + + + + + + + + + + + + + + + + + + + + + + + + + + + + + + + + + + + + + + + + + + + + + + + + + $ # + + + + + . ",
"* # + + + + + + + + + + + + + + + + + + + + + + + + + + + + + + + + + + + + + + + + + + + + + + + + + + + + + + $ # + + + + + . ",
"* # + + + + + + + + + + + + + + + + + + + + + + + + + + + + + + + + + + + + + + + + + + + + + + + + + + + + + + k # + + + + + . ",
"* # + + + + + + + + + + + + + + + + + + + + + + l # + + + + + + 4 # + + + + + + + + + + + + + + + + + + + + + + + + + + + + + . ",
"m # + + + + + + + + + + + + + + + + + + + + + + n [ + + + + + + 4 # + + + + + + + + + + + + + + + + + + + + + + + + + + + + + . ",
". + + + + + + + + + + + + + + + + + + + + + + + o # + + + + + + 4 # + + + + + + + + + + + + + + + + + + + + + + + + + + + + + . ",
". + + + + + + + + + + + + + + + + + > > + + + + $ # + + + + # p q r + + + + + + + + + + + + + + + + + + + + + + + + + + + + + . ",
". + + + + + + + + + + + + + + + + + s c c c c c t n 0 c 0 , 0 u v / + + + + + + + + + + + + + + + + + + + + + + + + # w c s + . ",
". + + + + + + + + + + + + + + + + + + + + + + + x y + + + x + ) j + + + + + + + + + + + + + + + + + + + + + + + + + + + + + + . ",
". + + + + + + + + + + + + + + + + + + + + + + + + + + + + + + + 4 # + + + + + + 4 # + + + + + + + + + + + + + + + + + + + + + . ",
". + + + + + + + + + + + + + + + + + + + + + + + + + + + + + + + 4 # + + + + + + $ # + + + + + + + + + + + + + + + + + + + + + . ",
". + + + + + + + + + + + + + + + + + + + + + + + + + + + + + + + 4 # + + + + + + $ # + + + + + + + + + + + + + + + + + + + + + . ",
". + + + + + + + + + + + + + + + + + + + + + + + + + + + + + + + 4 # + + + + + + z A + + + + + + + + + + + + + + + + + + + + + . ",
". + + + + + + + + + + + + + + + + + + + + + + + + + + + + + + + 4 # + + + + + + $ # + + + + + + + + + + + + + + + + + + + + + . ",
". + + + + + + + + + + + + + + + + + + + + + + + + + + + + + + + 4 # + + + + + + n [ + + + + + + + + + + + + + + + + + + + + + . ",
"B # + + + + + + + + + + + + + + + + + + + + + + + + + + + + + + n ] C 8 s D s s 9 k s s 8 } + + + + + + + + + + + + + + + + + . ",
"* # + + + + + + + + + + + + + + + + + + + + + + + + + + + + + + 5 8 j _ 8 _ d E F d 8 8 _ 7 + + + + + + + + + + + + + + + + + . ",
"* # + + + + + + + + + + + + + + + + + + + + + + + + + + + + + + 4 # + + + + + + 5 [ + + + + + + + + + + + + + + + + + + + + + . ",
"* # + + + + + + G # + + + + + + + + + + + + + + G # + + + + + + 4 # + + + + + + $ # + + + + + + + + + + + + + G # + + + + + + . ",
"* # + + + + + + + + + + + + + + + + + + + + + + + + + + + + + + 4 # + + + + + + $ # + + + + + + + + + + + + + $ # + + + + + + . ",
"* # + + + + + + j + + + + + + + + + + + + + + + j + + + + + + + $ # + + + + + + $ # + + + + + + + + + + + + + $ # + + + + + + . ",
"* # + + + + + + ! + + + + + + + + + + + + + + + ! + + + + + + + ! + + + + + + + ! + + + + + + + + + + + + + + $ # + + + + + + . ",
"* # + + + + + + r # + + + + + + + + + + + + + + r # + + + + + + + + + + + + + + + + + + + + + + + + + + + + + $ # + + + + + + . ",
"* # + + + + + + % # + + + + + + + + + + + + + + % # + + + + + + + + + + + + + + + + + + + + + + + + + + + + + $ # + + + + + + . ",
"H b 0 0 0 0 0 0 I J 0 0 0 0 0 0 0 0 0 0 0 0 0 0 I J 0 0 0 0 0 0 0 0 0 0 0 0 0 0 0 0 0 0 0 0 0 0 0 0 0 0 0 0 0 I J 0 0 0 0 0 0 K ",
"L M M M M M M M N O M M M M M M M M M M M M M M N O M M M M M M M M M M M M M M M M M M M M M M M M M M M M M N O M M M M M M P ",
"Q R R R S R R T U V R S R R R R R R R R S R R T U V R S R R R R R R R R R R R S R T R R R R R R T W W W T R R U V R S S R R X   ",
"Y Z `  ...Z Z +. . .@.#. . . .` Z Z `  ...Z Z +. . .@.#. . . . . . . .$.%.Z Z &. .+. . . . . . .+.&.&.&...@. . . . .&.#.*.=.$.  ",
"..-.O ;.>.,.'.).).).!.~.).).).M -.{.).;.>.,.'.).).).!.~.).).).).).).;.@.$.>.].).).).).).).).).).).).).).^.L ).).).).).L /.*.    ",
"  ..(.).).).).)._.:.:.<.[.[.}.:.-.(.).).).).).)._.:.:.<.[.[.}.).).).).|.1.M ).).:.<.[.(.'.).2.M ).).).).).X ).).).).3.....      ",
"  ....X 4.(.X ).).).).).5.2.2.(.@.(.4.S ).6.X ).).).).).5.2.2.N 7.).).).8.9.N ).).0.0.).).).S 2.).).).).).).).S N a.......      ",
"    ..<.M b.,.,.).'.:.'.).,.].7.@.<.4.c.:.2.,.,.).).).'.).,.].,.d.;.e.f.g.h.h.[.i.).).|.}.(.).j.<.).).4.X ).:.-.........        ",
"    ....k.>.l.S M m.O m.6.).2.X -.&.n.;.l.7.9.S ).).4.m.6.).2.S {.    ..  @.@.  5.!.o.2.o.^.(.l.;.l.!.M +.M 9.  ....            ",
"      ..        (.>.&.-...>.-.      !.p.        q.q.&.@.Z >.-.      q...          r.#.s.t.b.-.>.o.'.M u.v.>.                    ",
"                    w.x.9.9.        9.q.            w.y.z.9.      9.A.              w.  ....    #.S B.                          ",
"                                                                  C.                              C.                            ",
"                                                                                                                                "};
